<svg xmlns="http://www.w3.org/2000/svg" xmlns:xlink="http://www.w3.org/1999/xlink" width="1920" zoomAndPan="magnify" viewBox="0 0 1440 809.999993" height="1080" preserveAspectRatio="xMidYMid meet" version="1.0"><defs><clipPath id="2da95a3059"><path d="M 1337.578125 -257.59375 L 1655.359375 140.730469 L 265.894531 1249.242188 L -51.890625 850.917969 Z M 1337.578125 -257.59375 " clip-rule="nonzero"/></clipPath><clipPath id="42dc39da0f"><path d="M 1361.433594 -227.691406 L 1631.503906 110.832031 C 1637.832031 118.761719 1640.75 128.878906 1639.613281 138.960938 C 1638.480469 149.042969 1633.386719 158.257812 1625.457031 164.585938 L 296.675781 1224.683594 C 288.746094 1231.007812 278.628906 1233.925781 268.546875 1232.792969 C 258.464844 1231.660156 249.25 1226.566406 242.921875 1218.636719 L -27.152344 880.113281 C -33.476562 872.183594 -36.394531 862.0625 -35.261719 851.984375 C -34.125 841.902344 -29.035156 832.683594 -21.105469 826.359375 L 1307.675781 -233.738281 C 1315.605469 -240.066406 1325.726562 -242.984375 1335.808594 -241.847656 C 1345.886719 -240.714844 1355.105469 -235.621094 1361.433594 -227.691406 Z M 1361.433594 -227.691406 " clip-rule="nonzero"/></clipPath></defs><g clip-path="url(#2da95a3059)"><g clip-path="url(#42dc39da0f)"><path fill="#000000" d="M 1337.578125 -257.59375 L 1655.359375 140.730469 L 267.449219 1248 L -50.332031 849.675781 Z M 1337.578125 -257.59375 " fill-opacity="1" fill-rule="nonzero"/></g></g></svg>