<svg xmlns="http://www.w3.org/2000/svg" xmlns:xlink="http://www.w3.org/1999/xlink" width="1920" zoomAndPan="magnify" viewBox="0 0 1440 809.999993" height="1080" preserveAspectRatio="xMidYMid meet" version="1.0"><defs><filter x="0%" y="0%" width="100%" height="100%" id="c72345560c"><feColorMatrix values="0 0 0 0 1 0 0 0 0 1 0 0 0 0 1 0 0 0 1 0" color-interpolation-filters="sRGB"/></filter><clipPath id="4c7448ab9c"><path d="M 0 539.148438 L 178.300781 539.148438 L 178.300781 810 L 0 810 Z M 0 539.148438 " clip-rule="nonzero"/></clipPath><clipPath id="358c99128d"><path d="M 1155.199219 0 L 1440 0 L 1440 162 L 1155.199219 162 Z M 1155.199219 0 " clip-rule="nonzero"/></clipPath><clipPath id="a47ea57f20"><path d="M 0 356.851562 L 251.089844 356.851562 L 251.089844 680.851562 L 0 680.851562 Z M 0 356.851562 " clip-rule="nonzero"/></clipPath><clipPath id="0d6f933ba7"><path d="M 1308.65625 0 L 1440 0 L 1440 292.039062 L 1308.65625 292.039062 Z M 1308.65625 0 " clip-rule="nonzero"/></clipPath><clipPath id="d7383bb1f7"><path d="M 128.328125 90.65625 L 303.078125 90.65625 L 303.078125 259 L 128.328125 259 Z M 128.328125 90.65625 " clip-rule="nonzero"/></clipPath><mask id="b1aa1ab508"><g filter="url(#c72345560c)"><rect x="-144" width="1728" fill="#000000" y="-80.999999" height="971.999992" fill-opacity="0.16"/></g></mask><clipPath id="4e6bfbfb26"><path d="M 38 46 L 353 46 L 353 327 L 38 327 Z M 38 46 " clip-rule="nonzero"/></clipPath><clipPath id="f84be7768f"><path d="M 70.214844 1.570312 L 361.378906 73.859375 L 291.800781 354.101562 L 0.640625 281.816406 Z M 70.214844 1.570312 " clip-rule="nonzero"/></clipPath><clipPath id="d6136e850c"><path d="M 70.214844 1.570312 L 361.378906 73.859375 L 291.800781 354.101562 L 0.640625 281.816406 Z M 70.214844 1.570312 " clip-rule="nonzero"/></clipPath><clipPath id="86d5ab5bf9"><path d="M 84 66 L 336 66 L 336 262 L 84 262 Z M 84 66 " clip-rule="nonzero"/></clipPath><clipPath id="0a3ca02fd5"><path d="M 70.214844 1.570312 L 361.378906 73.859375 L 291.800781 354.101562 L 0.640625 281.816406 Z M 70.214844 1.570312 " clip-rule="nonzero"/></clipPath><clipPath id="29a5349a65"><path d="M 70.214844 1.570312 L 361.378906 73.859375 L 291.800781 354.101562 L 0.640625 281.816406 Z M 70.214844 1.570312 " clip-rule="nonzero"/></clipPath><clipPath id="59c2338546"><rect x="0" width="362" y="0" height="354"/></clipPath></defs><g clip-path="url(#4c7448ab9c)"><path fill="#24d6bd" d="M 178.242188 551.726562 L 164.949219 551.726562 L 164.949219 539.160156 L -114.933594 539.160156 L -114.933594 551.71875 L -128.226562 551.71875 L -128.226562 850.570312 L -114.933594 850.570312 L -114.933594 863.128906 L 164.949219 863.128906 L 164.949219 850.570312 L 178.242188 850.570312 Z M -110.550781 543.542969 L 160.566406 543.542969 L 160.566406 551.71875 L -110.550781 551.71875 Z M 160.566406 556.109375 L 160.566406 846.195312 L -110.550781 846.195312 L -110.550781 556.109375 Z M -123.84375 846.1875 L -123.84375 556.109375 L -114.933594 556.109375 L -114.933594 846.195312 L -123.84375 846.195312 Z M 160.566406 858.753906 L -110.550781 858.753906 L -110.550781 850.578125 L 160.566406 850.578125 Z M 173.859375 846.1875 L 164.949219 846.1875 L 164.949219 556.109375 L 173.859375 556.109375 Z M 173.859375 846.1875 " fill-opacity="1" fill-rule="nonzero"/></g><g clip-path="url(#358c99128d)"><path fill="#24d6bd" d="M 1461.890625 -149.421875 L 1448.597656 -149.421875 L 1448.597656 -161.988281 L 1168.714844 -161.988281 L 1168.714844 -149.429688 L 1155.421875 -149.429688 L 1155.421875 149.421875 L 1168.714844 149.421875 L 1168.714844 161.980469 L 1448.597656 161.980469 L 1448.597656 149.421875 L 1461.890625 149.421875 Z M 1173.097656 -157.605469 L 1444.214844 -157.605469 L 1444.214844 -149.429688 L 1173.097656 -149.429688 Z M 1444.214844 -145.039062 L 1444.214844 145.046875 L 1173.097656 145.046875 L 1173.097656 -145.039062 Z M 1159.804688 145.039062 L 1159.804688 -145.039062 L 1168.714844 -145.039062 L 1168.714844 145.046875 L 1159.804688 145.046875 Z M 1444.214844 157.605469 L 1173.097656 157.605469 L 1173.097656 149.429688 L 1444.214844 149.429688 Z M 1457.507812 145.039062 L 1448.597656 145.039062 L 1448.597656 -145.039062 L 1457.507812 -145.039062 Z M 1457.507812 145.039062 " fill-opacity="1" fill-rule="nonzero"/></g><g clip-path="url(#a47ea57f20)"><path fill="#b8007a" d="M 251.03125 369.429688 L 237.738281 369.429688 L 237.738281 356.863281 L -42.144531 356.863281 L -42.144531 369.421875 L -55.4375 369.421875 L -55.4375 668.273438 L -42.144531 668.273438 L -42.144531 680.832031 L 237.738281 680.832031 L 237.738281 668.273438 L 251.03125 668.273438 Z M -37.761719 361.246094 L 233.355469 361.246094 L 233.355469 369.421875 L -37.761719 369.421875 Z M 233.355469 373.8125 L 233.355469 663.898438 L -37.761719 663.898438 L -37.761719 373.8125 Z M -51.054688 663.890625 L -51.054688 373.8125 L -42.144531 373.8125 L -42.144531 663.898438 L -51.054688 663.898438 Z M 233.355469 676.457031 L -37.761719 676.457031 L -37.761719 668.28125 L 233.355469 668.28125 Z M 246.648438 663.890625 L 237.738281 663.890625 L 237.738281 373.8125 L 246.648438 373.8125 Z M 246.648438 663.890625 " fill-opacity="1" fill-rule="nonzero"/></g><g clip-path="url(#0d6f933ba7)"><path fill="#b8007a" d="M 1615.351562 -19.382812 L 1602.054688 -19.382812 L 1602.054688 -31.949219 L 1322.175781 -31.949219 L 1322.175781 -19.390625 L 1308.878906 -19.390625 L 1308.878906 279.460938 L 1322.175781 279.460938 L 1322.175781 292.019531 L 1602.054688 292.019531 L 1602.054688 279.460938 L 1615.351562 279.460938 Z M 1326.558594 -27.566406 L 1597.671875 -27.566406 L 1597.671875 -19.390625 L 1326.558594 -19.390625 Z M 1597.671875 -15.003906 L 1597.671875 275.085938 L 1326.558594 275.085938 L 1326.558594 -15.003906 Z M 1313.261719 275.078125 L 1313.261719 -15.003906 L 1322.175781 -15.003906 L 1322.175781 275.085938 L 1313.261719 275.085938 Z M 1597.671875 287.644531 L 1326.558594 287.644531 L 1326.558594 279.464844 L 1597.671875 279.464844 Z M 1610.96875 275.078125 L 1602.054688 275.078125 L 1602.054688 -15.003906 L 1610.96875 -15.003906 Z M 1610.96875 275.078125 " fill-opacity="1" fill-rule="nonzero"/></g><g clip-path="url(#d7383bb1f7)"><path fill="#b8007a" d="M 224.867188 163.25 C 224.9375 166.140625 224.789062 169.023438 224.546875 171.894531 C 224.324219 174.554688 223.882812 177.1875 223.132812 179.757812 C 221.972656 183.71875 219.613281 186.773438 216.253906 189.121094 C 213.277344 191.199219 209.984375 192.625 206.652344 193.992188 C 203.746094 195.183594 200.714844 195.96875 197.695312 196.808594 C 195.296875 197.480469 192.90625 198.183594 190.566406 199.046875 C 188.082031 199.960938 186.070312 201.464844 184.589844 203.671875 C 183.558594 205.214844 182.640625 206.820312 181.792969 208.46875 C 179.671875 212.585938 177.660156 216.753906 175.886719 221.035156 C 175.4375 222.125 175.34375 222.144531 174.4375 222.023438 C 173.839844 221.941406 173.636719 221.597656 173.480469 221.058594 C 172.789062 218.664062 172.105469 216.265625 171.199219 213.941406 C 169.679688 210.050781 167.964844 206.253906 165.347656 202.953125 C 163.847656 201.058594 162.105469 199.402344 159.808594 198.542969 C 157.878906 197.820312 155.867188 197.335938 153.785156 197.242188 C 151.003906 197.117188 148.234375 196.773438 145.546875 196.101562 C 140.472656 194.835938 136.550781 191.972656 134.148438 187.199219 C 132.386719 183.703125 131.304688 179.988281 130.542969 176.171875 C 129.761719 172.257812 129.273438 168.308594 128.964844 164.328125 C 128.703125 160.953125 128.496094 157.578125 128.617188 154.195312 C 128.703125 151.777344 128.964844 149.375 129.648438 147.03125 C 130.605469 143.75 132.511719 141.363281 135.792969 140.144531 C 138.242188 139.238281 140.769531 138.65625 143.332031 138.21875 C 148.109375 137.398438 152.925781 137.011719 157.773438 136.882812 C 162.183594 136.765625 166.59375 136.519531 171 136.234375 C 176.398438 135.886719 181.800781 135.617188 187.207031 135.359375 C 190.414062 135.207031 193.617188 135.164062 196.816406 135.28125 C 199.914062 135.394531 203.011719 135.359375 206.109375 135.488281 C 206.25 135.492188 206.394531 135.503906 206.535156 135.5 C 207.457031 135.472656 207.929688 135.882812 208.328125 136.773438 C 210.324219 141.238281 212.648438 145.523438 215.808594 149.300781 C 217.78125 151.664062 220.042969 153.714844 222.507812 155.546875 C 222.9375 155.867188 223.34375 156.234375 223.816406 156.472656 C 224.648438 156.898438 224.9375 157.5 224.890625 158.441406 C 224.804688 160.042969 224.867188 161.648438 224.867188 163.25 Z M 163.878906 153.359375 C 161.59375 153.265625 159.589844 154.03125 157.816406 155.375 C 155.710938 156.964844 154.777344 159.246094 154.753906 161.789062 C 154.730469 163.925781 155.660156 165.8125 156.941406 167.558594 C 158.792969 170.085938 161.105469 172.121094 163.535156 174.042969 C 167.691406 177.328125 172.242188 180.0625 176.503906 183.203125 C 178.238281 184.480469 178.285156 184.710938 180.207031 182.890625 C 181.808594 181.378906 183.359375 179.8125 184.828125 178.15625 C 186.359375 176.429688 187.976562 174.773438 189.492188 173.03125 C 191.828125 170.347656 194.121094 167.625 195.816406 164.484375 C 196.984375 162.320312 197.878906 160.070312 197.925781 157.519531 C 197.984375 154.277344 195.125 151.785156 192.785156 151.433594 C 191.46875 151.234375 190.1875 151.269531 188.867188 151.421875 C 185.808594 151.777344 183.253906 153.132812 181.035156 155.179688 C 179.453125 156.640625 178.328125 158.464844 177.21875 160.289062 C 176.789062 160.996094 176.722656 161.039062 176.15625 160.417969 C 174.976562 159.125 173.605469 158.042969 172.347656 156.835938 C 169.992188 154.566406 167.121094 153.488281 163.878906 153.359375 Z M 287.882812 200.929688 C 287.984375 204.5 287.652344 208.042969 287.304688 211.585938 C 287.054688 214.136719 286.867188 216.695312 286.378906 219.210938 C 285.78125 222.304688 284.824219 225.277344 283.058594 227.9375 C 281.910156 229.667969 280.40625 231 278.613281 232.015625 C 277.25 232.792969 275.816406 233.425781 274.339844 233.964844 C 269.820312 235.617188 265.246094 237.082031 260.46875 237.796875 C 257.480469 238.246094 254.476562 238.601562 251.5 239.144531 C 249.394531 239.53125 247.339844 240.109375 245.289062 240.703125 C 244.460938 240.941406 243.992188 241.417969 243.738281 242.269531 C 242.953125 244.898438 242.433594 247.59375 241.71875 250.238281 C 241.179688 252.230469 240.671875 254.234375 240.003906 256.1875 C 239.792969 256.796875 239.582031 257.40625 239.210938 257.933594 C 238.476562 258.988281 237.457031 259.035156 236.648438 258.042969 C 236.058594 257.324219 235.570312 256.539062 235.148438 255.710938 C 233.363281 252.21875 231.804688 248.621094 230.203125 245.046875 C 229.433594 243.324219 228.46875 241.695312 227.777344 239.933594 C 227.625 239.554688 227.265625 239.355469 226.953125 239.117188 C 225.777344 238.207031 224.390625 237.714844 223.015625 237.242188 C 217.660156 235.386719 212.429688 233.21875 207.242188 230.949219 C 203.675781 229.386719 200.996094 226.796875 198.941406 223.503906 C 197.367188 220.972656 196.558594 218.191406 195.988281 215.3125 C 195.546875 213.074219 195.140625 210.828125 195.3125 208.53125 C 195.367188 207.785156 195.464844 207.042969 195.570312 206.304688 C 195.65625 205.71875 195.933594 205.382812 196.605469 205.316406 C 199.191406 205.066406 201.761719 204.667969 204.289062 204.066406 C 210.800781 202.519531 216.570312 199.585938 221.375 194.859375 C 222.171875 194.078125 222.8125 193.191406 223.316406 192.195312 C 224.007812 190.828125 224.898438 189.578125 225.613281 188.21875 C 227.011719 185.554688 228.011719 182.742188 228.886719 179.878906 C 229.253906 178.675781 229.257812 178.671875 230.515625 178.496094 C 231.644531 178.339844 232.789062 178.324219 233.921875 178.273438 C 236.945312 178.144531 239.957031 177.839844 242.984375 177.710938 C 246.859375 177.550781 250.722656 177.246094 254.578125 176.765625 C 257.152344 176.441406 259.75 176.308594 262.351562 176.203125 C 265.246094 176.082031 268.117188 176.199219 270.964844 176.710938 C 275.214844 177.472656 279.101562 179.058594 282.328125 182.011719 C 284.183594 183.710938 285.351562 185.859375 286.207031 188.199219 C 287.292969 191.171875 287.789062 194.253906 287.875 197.402344 C 287.910156 198.578125 287.882812 199.753906 287.882812 200.929688 Z M 229.335938 207.035156 C 229.390625 206.324219 229.046875 205.296875 228.554688 204.355469 C 227.863281 203.035156 226.777344 202.128906 225.242188 201.941406 C 224.167969 201.8125 223.109375 202.027344 222.101562 202.382812 C 221.355469 202.644531 220.695312 203.054688 220.261719 203.765625 C 218.96875 205.878906 218.800781 208.058594 220.003906 210.238281 C 221.925781 213.71875 226.636719 213.605469 228.46875 210.578125 C 229.054688 209.609375 229.296875 208.550781 229.335938 207.035156 Z M 272.070312 207.222656 C 272.164062 205.207031 271.167969 203.753906 269.613281 202.640625 C 268.886719 202.121094 267.972656 202 267.128906 201.746094 C 266.832031 201.65625 266.496094 201.71875 266.175781 201.792969 C 263.652344 202.398438 260.917969 205.921875 263.066406 209.125 C 263.507812 209.785156 264.039062 210.378906 264.679688 210.808594 C 265.777344 211.550781 266.976562 212.144531 268.363281 211.894531 C 270.8125 211.457031 271.988281 209.449219 272.070312 207.222656 Z M 250.5 206.953125 C 250.519531 206.605469 250.445312 205.980469 250.277344 205.355469 C 249.8125 203.636719 248.226562 202.425781 246.460938 202.335938 C 245.324219 202.28125 244.390625 202.78125 243.421875 203.199219 C 241.726562 203.933594 240.925781 205.777344 241.136719 207.175781 C 241.554688 209.9375 242.777344 211.101562 245.375 211.710938 C 246.363281 211.941406 247.410156 211.878906 248.355469 211.273438 C 249.835938 210.320312 250.515625 208.980469 250.5 206.953125 Z M 261.519531 90.796875 C 265.9375 90.796875 270.355469 90.714844 274.773438 90.816406 C 279.359375 90.925781 283.949219 91.144531 288.476562 92.015625 C 290.554688 92.414062 292.550781 93.046875 294.425781 94.027344 C 297.414062 95.59375 299.273438 98.152344 300.535156 101.191406 C 301.402344 103.277344 301.832031 105.484375 302.195312 107.695312 C 302.957031 112.3125 303.238281 116.96875 303.039062 121.636719 C 302.855469 125.914062 302.253906 130.136719 300.886719 134.222656 C 299.382812 138.71875 296.613281 142.101562 292.371094 144.320312 C 287.425781 146.910156 282.226562 148.621094 276.695312 149.34375 C 276.199219 149.410156 275.703125 149.464844 275.21875 149.574219 C 273.441406 149.980469 271.648438 150.238281 269.820312 150.152344 C 269.382812 150.132812 269.101562 150.226562 269 150.738281 C 268.535156 153.050781 267.621094 155.226562 266.914062 157.464844 C 266.347656 159.265625 265.789062 161.070312 265.277344 162.882812 C 264.882812 164.273438 264.230469 165.53125 263.46875 166.738281 C 262.847656 167.710938 261.96875 167.679688 261.414062 166.632812 C 260.699219 165.277344 260.078125 163.878906 259.410156 162.5 C 258.277344 160.160156 257.339844 157.730469 256.148438 155.414062 C 255.851562 154.832031 255.554688 154.632812 254.859375 154.640625 C 250.796875 154.6875 246.71875 154.863281 242.679688 154.582031 C 237.925781 154.25 233.1875 153.605469 228.683594 151.871094 C 227.375 151.367188 226.175781 150.742188 225.097656 149.8125 C 221.851562 147.003906 218.867188 143.976562 216.359375 140.476562 C 214.398438 137.742188 213.40625 134.667969 212.855469 131.40625 C 212.082031 126.824219 211.855469 122.199219 212.058594 117.570312 C 212.25 113.230469 212.800781 108.921875 213.960938 104.714844 C 215.066406 100.714844 217.570312 97.855469 221.109375 95.78125 C 224.042969 94.0625 227.230469 93.113281 230.53125 92.464844 C 233.570312 91.863281 236.652344 91.613281 239.738281 91.324219 C 246.988281 90.636719 254.253906 90.808594 261.519531 90.796875 Z M 279.53125 136.929688 C 279.53125 136.929688 279.53125 136.925781 279.53125 136.925781 C 279.996094 136.925781 280.457031 136.925781 280.921875 136.925781 C 283.699219 136.925781 286.480469 136.9375 289.257812 136.917969 C 290.507812 136.910156 291.066406 136.316406 291.109375 135.078125 C 291.148438 133.898438 290.992188 132.738281 290.730469 131.59375 C 290.5 130.601562 290.359375 130.441406 289.355469 130.53125 C 287.796875 130.667969 286.222656 130.613281 284.675781 130.785156 C 283.679688 130.890625 282.683594 130.855469 281.699219 130.996094 C 280.328125 131.1875 278.945312 131.332031 277.566406 131.335938 C 272.691406 131.339844 267.816406 131.347656 262.941406 131.222656 C 257 131.070312 251.054688 131.078125 245.105469 131.304688 C 239.308594 131.527344 233.5 131.332031 227.699219 131.582031 C 227.453125 131.589844 227.199219 131.570312 226.953125 131.597656 C 226.707031 131.621094 226.46875 131.6875 226.222656 131.730469 C 225.59375 131.839844 225.304688 132.28125 225.265625 132.851562 C 225.179688 134.164062 224.953125 135.464844 225.03125 136.785156 C 225.085938 137.65625 225.433594 138.097656 226.308594 138.175781 C 226.835938 138.222656 227.386719 138.253906 227.90625 138.160156 C 230.578125 137.691406 233.289062 137.851562 235.972656 137.585938 C 237.597656 137.421875 239.234375 137.53125 240.871094 137.402344 C 243.101562 137.230469 245.347656 137.238281 247.585938 137.1875 C 255.667969 137 263.753906 137.285156 271.835938 136.949219 C 274.394531 136.839844 276.964844 136.929688 279.53125 136.929688 Z M 267.289062 104.648438 C 265.6875 104.746094 263.199219 104.621094 260.707031 104.785156 C 257.625 104.988281 254.519531 104.863281 251.429688 105.042969 C 249.265625 105.167969 247.097656 105.050781 244.925781 105.21875 C 242.59375 105.402344 240.238281 105.371094 237.894531 105.453125 C 234.589844 105.570312 231.273438 105.414062 227.972656 105.71875 C 226.984375 105.808594 226 105.910156 225.003906 105.957031 C 224.144531 105.996094 223.792969 106.480469 223.761719 107.371094 C 223.730469 108.261719 223.859375 109.140625 223.953125 110.023438 C 224.078125 111.25 224.054688 111.253906 225.265625 111.28125 C 227.367188 111.328125 229.457031 111.125 231.550781 111.078125 C 233.152344 111.042969 234.75 110.902344 236.335938 110.773438 C 238.78125 110.574219 241.230469 110.507812 243.675781 110.457031 C 246.90625 110.386719 250.140625 110.355469 253.382812 110.570312 C 255.855469 110.734375 258.355469 110.527344 260.84375 110.480469 C 265.429688 110.386719 270.019531 110.222656 274.609375 110.191406 C 276.671875 110.179688 278.730469 110.132812 280.792969 110.042969 C 283.988281 109.90625 287.171875 109.625 290.367188 109.558594 C 291.605469 109.535156 292.054688 108.753906 291.914062 107.65625 C 291.796875 106.746094 291.554688 105.847656 291.339844 104.953125 C 291.140625 104.113281 290.953125 103.957031 290.078125 104.003906 C 289.125 104.050781 288.15625 104.089844 287.226562 104.28125 C 285.125 104.710938 282.988281 104.710938 280.871094 104.804688 C 278.675781 104.898438 276.46875 104.875 274.261719 104.6875 C 272.246094 104.515625 270.203125 104.648438 267.289062 104.648438 Z M 224.402344 121.160156 C 224.402344 121.65625 224.386719 122.082031 224.402344 122.511719 C 224.429688 123.246094 224.679688 123.53125 225.402344 123.640625 C 225.683594 123.679688 225.972656 123.648438 226.257812 123.667969 C 228.113281 123.796875 229.945312 123.378906 231.792969 123.449219 C 233.894531 123.523438 235.980469 123.171875 238.082031 123.226562 C 238.1875 123.230469 238.296875 123.222656 238.398438 123.203125 C 240.601562 122.753906 242.851562 122.867188 245.070312 122.625 C 246.585938 122.460938 248.117188 122.5625 249.648438 122.429688 C 251.875 122.242188 254.121094 122.277344 256.359375 122.214844 C 265.21875 121.964844 274.089844 122.410156 282.949219 121.96875 C 283.949219 121.917969 284.933594 122.3125 285.921875 122.128906 C 287.234375 121.882812 288.546875 122.003906 289.859375 121.949219 C 290.179688 121.9375 290.503906 121.960938 290.820312 121.914062 C 291.839844 121.761719 292.160156 121.386719 292.175781 120.351562 C 292.191406 119.25 292.160156 118.152344 291.992188 117.054688 C 291.867188 116.253906 291.671875 116 290.851562 115.980469 C 289.535156 115.945312 288.226562 116.125 286.929688 116.289062 C 285.132812 116.515625 283.339844 116.746094 281.535156 116.808594 C 279.71875 116.867188 277.890625 116.722656 276.089844 116.882812 C 273.296875 117.128906 270.492188 117.203125 267.699219 117.433594 C 265.4375 117.621094 263.15625 117.507812 260.878906 117.621094 C 256.652344 117.832031 252.417969 117.605469 248.179688 117.84375 C 245.878906 117.972656 243.574219 118.234375 241.257812 118.121094 C 241.1875 118.117188 241.113281 118.117188 241.042969 118.128906 C 239.039062 118.460938 237.007812 118.371094 234.988281 118.496094 C 233.039062 118.617188 231.074219 118.542969 229.113281 118.539062 C 228.121094 118.539062 227.125 118.609375 226.140625 118.355469 C 225.773438 118.261719 225.355469 118.296875 224.972656 118.351562 C 224.421875 118.425781 224.128906 118.808594 224.28125 119.320312 C 224.472656 119.957031 224.339844 120.59375 224.402344 121.160156 Z M 163.878906 153.359375 C 167.121094 153.488281 169.992188 154.566406 172.347656 156.835938 C 173.605469 158.042969 174.976562 159.125 176.15625 160.417969 C 176.722656 161.039062 176.789062 160.996094 177.21875 160.289062 C 178.328125 158.464844 179.453125 156.640625 181.035156 155.179688 C 183.253906 153.132812 185.808594 151.777344 188.867188 151.421875 C 190.1875 151.269531 191.46875 151.234375 192.785156 151.433594 C 195.125 151.785156 197.984375 154.277344 197.925781 157.519531 C 197.878906 160.070312 196.984375 162.320312 195.816406 164.484375 C 194.121094 167.625 191.828125 170.347656 189.492188 173.03125 C 187.976562 174.773438 186.359375 176.429688 184.828125 178.15625 C 183.359375 179.8125 181.808594 181.378906 180.207031 182.890625 C 178.285156 184.710938 178.238281 184.480469 176.503906 183.203125 C 172.242188 180.0625 167.691406 177.328125 163.535156 174.042969 C 161.105469 172.121094 158.792969 170.085938 156.941406 167.558594 C 155.660156 165.8125 154.730469 163.925781 154.753906 161.789062 C 154.777344 159.246094 155.710938 156.964844 157.816406 155.375 C 159.589844 154.03125 161.59375 153.265625 163.878906 153.359375 Z M 228.554688 204.355469 C 227.863281 203.035156 226.777344 202.128906 225.242188 201.941406 C 224.167969 201.8125 223.109375 202.027344 222.101562 202.382812 C 221.355469 202.644531 220.695312 203.054688 220.261719 203.765625 C 218.96875 205.878906 218.800781 208.058594 220.003906 210.238281 C 221.925781 213.71875 226.636719 213.605469 228.46875 210.578125 C 229.054688 209.609375 229.296875 208.550781 229.335938 207.035156 C 229.390625 206.324219 229.046875 205.296875 228.554688 204.355469 Z M 269.613281 202.640625 C 268.886719 202.121094 267.972656 202 267.128906 201.746094 C 266.832031 201.65625 266.496094 201.71875 266.175781 201.792969 C 263.652344 202.398438 260.917969 205.921875 263.066406 209.125 C 263.507812 209.785156 264.039062 210.378906 264.679688 210.808594 C 265.777344 211.550781 266.976562 212.144531 268.363281 211.894531 C 270.8125 211.457031 271.988281 209.449219 272.070312 207.222656 C 272.164062 205.207031 271.167969 203.753906 269.613281 202.640625 Z M 250.277344 205.355469 C 249.8125 203.636719 248.226562 202.425781 246.460938 202.335938 C 245.324219 202.28125 244.390625 202.78125 243.421875 203.199219 C 241.726562 203.933594 240.925781 205.777344 241.136719 207.175781 C 241.554688 209.9375 242.777344 211.101562 245.375 211.710938 C 246.363281 211.941406 247.410156 211.878906 248.355469 211.273438 C 249.835938 210.320312 250.515625 208.980469 250.5 206.953125 C 250.519531 206.605469 250.445312 205.980469 250.277344 205.355469 Z M 279.53125 136.925781 C 279.996094 136.925781 280.457031 136.925781 280.921875 136.925781 C 283.699219 136.925781 286.480469 136.9375 289.257812 136.917969 C 290.507812 136.910156 291.066406 136.316406 291.109375 135.078125 C 291.148438 133.898438 290.992188 132.738281 290.730469 131.59375 C 290.5 130.601562 290.359375 130.441406 289.355469 130.53125 C 287.796875 130.667969 286.222656 130.613281 284.675781 130.785156 C 283.679688 130.890625 282.683594 130.855469 281.699219 130.996094 C 280.328125 131.1875 278.945312 131.332031 277.566406 131.335938 C 272.691406 131.339844 267.816406 131.347656 262.941406 131.222656 C 257 131.070312 251.054688 131.078125 245.105469 131.304688 C 239.308594 131.527344 233.5 131.332031 227.699219 131.582031 C 227.453125 131.589844 227.199219 131.570312 226.953125 131.597656 C 226.707031 131.621094 226.46875 131.6875 226.222656 131.730469 C 225.59375 131.839844 225.304688 132.28125 225.265625 132.851562 C 225.179688 134.164062 224.953125 135.464844 225.03125 136.785156 C 225.085938 137.65625 225.433594 138.097656 226.308594 138.175781 C 226.835938 138.222656 227.386719 138.253906 227.90625 138.160156 C 230.578125 137.691406 233.289062 137.851562 235.972656 137.585938 C 237.597656 137.421875 239.234375 137.53125 240.871094 137.402344 C 243.101562 137.230469 245.347656 137.238281 247.585938 137.1875 C 255.667969 137 263.753906 137.285156 271.835938 136.949219 C 274.394531 136.839844 276.964844 136.929688 279.53125 136.929688 C 279.53125 136.929688 279.53125 136.925781 279.53125 136.925781 Z M 260.707031 104.785156 C 257.625 104.988281 254.519531 104.863281 251.429688 105.042969 C 249.265625 105.167969 247.097656 105.050781 244.925781 105.21875 C 242.59375 105.402344 240.238281 105.371094 237.894531 105.453125 C 234.589844 105.570312 231.273438 105.414062 227.972656 105.71875 C 226.984375 105.808594 226 105.910156 225.003906 105.957031 C 224.144531 105.996094 223.792969 106.480469 223.761719 107.371094 C 223.730469 108.261719 223.859375 109.140625 223.953125 110.023438 C 224.078125 111.25 224.054688 111.253906 225.265625 111.28125 C 227.367188 111.328125 229.457031 111.125 231.550781 111.078125 C 233.152344 111.042969 234.75 110.902344 236.335938 110.773438 C 238.78125 110.574219 241.230469 110.507812 243.675781 110.457031 C 246.90625 110.386719 250.140625 110.355469 253.382812 110.570312 C 255.855469 110.734375 258.355469 110.527344 260.84375 110.480469 C 265.429688 110.386719 270.019531 110.222656 274.609375 110.191406 C 276.671875 110.179688 278.730469 110.132812 280.792969 110.042969 C 283.988281 109.90625 287.171875 109.625 290.367188 109.558594 C 291.605469 109.535156 292.054688 108.753906 291.914062 107.65625 C 291.796875 106.746094 291.554688 105.847656 291.339844 104.953125 C 291.140625 104.113281 290.953125 103.957031 290.078125 104.003906 C 289.125 104.050781 288.15625 104.089844 287.226562 104.28125 C 285.125 104.710938 282.988281 104.710938 280.871094 104.804688 C 278.675781 104.898438 276.46875 104.875 274.261719 104.6875 C 272.246094 104.515625 270.203125 104.648438 267.289062 104.648438 C 265.6875 104.746094 263.199219 104.621094 260.707031 104.785156 Z M 224.402344 122.511719 C 224.429688 123.246094 224.679688 123.53125 225.402344 123.640625 C 225.683594 123.679688 225.972656 123.648438 226.257812 123.667969 C 228.113281 123.796875 229.945312 123.378906 231.792969 123.449219 C 233.894531 123.523438 235.980469 123.171875 238.082031 123.226562 C 238.1875 123.230469 238.296875 123.222656 238.398438 123.203125 C 240.601562 122.753906 242.851562 122.867188 245.070312 122.625 C 246.585938 122.460938 248.117188 122.5625 249.648438 122.429688 C 251.875 122.242188 254.121094 122.277344 256.359375 122.214844 C 265.21875 121.964844 274.089844 122.410156 282.949219 121.96875 C 283.949219 121.917969 284.933594 122.3125 285.921875 122.128906 C 287.234375 121.882812 288.546875 122.003906 289.859375 121.949219 C 290.179688 121.9375 290.503906 121.960938 290.820312 121.914062 C 291.839844 121.761719 292.160156 121.386719 292.175781 120.351562 C 292.191406 119.25 292.160156 118.152344 291.992188 117.054688 C 291.867188 116.253906 291.671875 116 290.851562 115.980469 C 289.535156 115.945312 288.226562 116.125 286.929688 116.289062 C 285.132812 116.515625 283.339844 116.746094 281.535156 116.808594 C 279.71875 116.867188 277.890625 116.722656 276.089844 116.882812 C 273.296875 117.128906 270.492188 117.203125 267.699219 117.433594 C 265.4375 117.621094 263.15625 117.507812 260.878906 117.621094 C 256.652344 117.832031 252.417969 117.605469 248.179688 117.84375 C 245.878906 117.972656 243.574219 118.234375 241.257812 118.121094 C 241.1875 118.117188 241.113281 118.117188 241.042969 118.128906 C 239.039062 118.460938 237.007812 118.371094 234.988281 118.496094 C 233.039062 118.617188 231.074219 118.542969 229.113281 118.539062 C 228.121094 118.539062 227.125 118.609375 226.140625 118.355469 C 225.773438 118.261719 225.355469 118.296875 224.972656 118.351562 C 224.421875 118.425781 224.128906 118.808594 224.28125 119.320312 C 224.472656 119.957031 224.339844 120.59375 224.402344 121.160156 C 224.402344 121.65625 224.386719 122.082031 224.402344 122.511719 Z M 224.402344 122.511719 " fill-opacity="1" fill-rule="nonzero"/><path fill="#b8007a" d="M 224.867188 163.25 C 224.9375 166.140625 224.789062 169.023438 224.546875 171.894531 C 224.324219 174.554688 223.882812 177.1875 223.132812 179.757812 C 221.972656 183.71875 219.613281 186.773438 216.253906 189.121094 C 213.277344 191.199219 209.984375 192.625 206.652344 193.992188 C 203.746094 195.183594 200.714844 195.96875 197.695312 196.808594 C 195.296875 197.480469 192.90625 198.183594 190.566406 199.046875 C 188.082031 199.960938 186.070312 201.464844 184.589844 203.671875 C 183.558594 205.214844 182.640625 206.820312 181.792969 208.46875 C 179.671875 212.585938 177.660156 216.753906 175.886719 221.035156 C 175.4375 222.125 175.34375 222.144531 174.4375 222.023438 C 173.839844 221.941406 173.636719 221.597656 173.480469 221.058594 C 172.789062 218.664062 172.105469 216.265625 171.199219 213.941406 C 169.679688 210.050781 167.964844 206.253906 165.347656 202.953125 C 163.847656 201.058594 162.105469 199.402344 159.808594 198.542969 C 157.878906 197.820312 155.867188 197.335938 153.785156 197.242188 C 151.003906 197.117188 148.234375 196.773438 145.546875 196.101562 C 140.472656 194.835938 136.550781 191.972656 134.148438 187.199219 C 132.386719 183.703125 131.304688 179.988281 130.542969 176.171875 C 129.761719 172.257812 129.273438 168.308594 128.964844 164.328125 C 128.703125 160.953125 128.496094 157.578125 128.617188 154.195312 C 128.703125 151.777344 128.964844 149.375 129.648438 147.03125 C 130.605469 143.75 132.511719 141.363281 135.792969 140.144531 C 138.242188 139.238281 140.769531 138.65625 143.332031 138.21875 C 148.109375 137.398438 152.925781 137.011719 157.773438 136.882812 C 162.183594 136.765625 166.59375 136.519531 171 136.234375 C 176.398438 135.886719 181.800781 135.617188 187.207031 135.359375 C 190.414062 135.207031 193.617188 135.164062 196.816406 135.28125 C 199.914062 135.394531 203.011719 135.359375 206.109375 135.488281 C 206.25 135.492188 206.394531 135.503906 206.535156 135.5 C 207.457031 135.472656 207.929688 135.882812 208.328125 136.773438 C 210.324219 141.238281 212.648438 145.523438 215.808594 149.300781 C 217.78125 151.664062 220.042969 153.714844 222.507812 155.546875 C 222.9375 155.867188 223.34375 156.234375 223.816406 156.472656 C 224.648438 156.898438 224.9375 157.5 224.890625 158.441406 C 224.804688 160.042969 224.867188 161.648438 224.867188 163.25 Z M 163.878906 153.359375 C 161.59375 153.265625 159.589844 154.03125 157.816406 155.375 C 155.710938 156.964844 154.777344 159.246094 154.753906 161.789062 C 154.730469 163.925781 155.660156 165.8125 156.941406 167.558594 C 158.792969 170.085938 161.105469 172.121094 163.535156 174.042969 C 167.691406 177.328125 172.242188 180.0625 176.503906 183.203125 C 178.238281 184.480469 178.285156 184.710938 180.207031 182.890625 C 181.808594 181.378906 183.359375 179.8125 184.828125 178.15625 C 186.359375 176.429688 187.976562 174.773438 189.492188 173.03125 C 191.828125 170.347656 194.121094 167.625 195.816406 164.484375 C 196.984375 162.320312 197.878906 160.070312 197.925781 157.519531 C 197.984375 154.277344 195.125 151.785156 192.785156 151.433594 C 191.46875 151.234375 190.1875 151.269531 188.867188 151.421875 C 185.808594 151.777344 183.253906 153.132812 181.035156 155.179688 C 179.453125 156.640625 178.328125 158.464844 177.21875 160.289062 C 176.789062 160.996094 176.722656 161.039062 176.15625 160.417969 C 174.976562 159.125 173.605469 158.042969 172.347656 156.835938 C 169.992188 154.566406 167.121094 153.488281 163.878906 153.359375 Z M 287.882812 200.929688 C 287.984375 204.5 287.652344 208.042969 287.304688 211.585938 C 287.054688 214.136719 286.867188 216.695312 286.378906 219.210938 C 285.78125 222.304688 284.824219 225.277344 283.058594 227.9375 C 281.910156 229.667969 280.40625 231 278.613281 232.015625 C 277.25 232.792969 275.816406 233.425781 274.339844 233.964844 C 269.820312 235.617188 265.246094 237.082031 260.46875 237.796875 C 257.480469 238.246094 254.476562 238.601562 251.5 239.144531 C 249.394531 239.53125 247.339844 240.109375 245.289062 240.703125 C 244.460938 240.941406 243.992188 241.417969 243.738281 242.269531 C 242.953125 244.898438 242.433594 247.59375 241.71875 250.238281 C 241.179688 252.230469 240.671875 254.234375 240.003906 256.1875 C 239.792969 256.796875 239.582031 257.40625 239.210938 257.933594 C 238.476562 258.988281 237.457031 259.035156 236.648438 258.042969 C 236.058594 257.324219 235.570312 256.539062 235.148438 255.710938 C 233.363281 252.21875 231.804688 248.621094 230.203125 245.046875 C 229.433594 243.324219 228.46875 241.695312 227.777344 239.933594 C 227.625 239.554688 227.265625 239.355469 226.953125 239.117188 C 225.777344 238.207031 224.390625 237.714844 223.015625 237.242188 C 217.660156 235.386719 212.429688 233.21875 207.242188 230.949219 C 203.675781 229.386719 200.996094 226.796875 198.941406 223.503906 C 197.367188 220.972656 196.558594 218.191406 195.988281 215.3125 C 195.546875 213.074219 195.140625 210.828125 195.3125 208.53125 C 195.367188 207.785156 195.464844 207.042969 195.570312 206.304688 C 195.65625 205.71875 195.933594 205.382812 196.605469 205.316406 C 199.191406 205.066406 201.761719 204.667969 204.289062 204.066406 C 210.800781 202.519531 216.570312 199.585938 221.375 194.859375 C 222.171875 194.078125 222.8125 193.191406 223.316406 192.195312 C 224.007812 190.828125 224.898438 189.578125 225.613281 188.21875 C 227.011719 185.554688 228.011719 182.742188 228.886719 179.878906 C 229.253906 178.675781 229.257812 178.671875 230.515625 178.496094 C 231.644531 178.339844 232.789062 178.324219 233.921875 178.273438 C 236.945312 178.144531 239.957031 177.839844 242.984375 177.710938 C 246.859375 177.550781 250.722656 177.246094 254.578125 176.765625 C 257.152344 176.441406 259.75 176.308594 262.351562 176.203125 C 265.246094 176.082031 268.117188 176.199219 270.964844 176.710938 C 275.214844 177.472656 279.101562 179.058594 282.328125 182.011719 C 284.183594 183.710938 285.351562 185.859375 286.207031 188.199219 C 287.292969 191.171875 287.789062 194.253906 287.875 197.402344 C 287.910156 198.578125 287.882812 199.753906 287.882812 200.929688 Z M 229.335938 207.035156 C 229.390625 206.324219 229.046875 205.296875 228.554688 204.355469 C 227.863281 203.035156 226.777344 202.128906 225.242188 201.941406 C 224.167969 201.8125 223.109375 202.027344 222.101562 202.382812 C 221.355469 202.644531 220.695312 203.054688 220.261719 203.765625 C 218.96875 205.878906 218.800781 208.058594 220.003906 210.238281 C 221.925781 213.71875 226.636719 213.605469 228.46875 210.578125 C 229.054688 209.609375 229.296875 208.550781 229.335938 207.035156 Z M 272.070312 207.222656 C 272.164062 205.207031 271.167969 203.753906 269.613281 202.640625 C 268.886719 202.121094 267.972656 202 267.128906 201.746094 C 266.832031 201.65625 266.496094 201.71875 266.175781 201.792969 C 263.652344 202.398438 260.917969 205.921875 263.066406 209.125 C 263.507812 209.785156 264.039062 210.378906 264.679688 210.808594 C 265.777344 211.550781 266.976562 212.144531 268.363281 211.894531 C 270.8125 211.457031 271.988281 209.449219 272.070312 207.222656 Z M 250.5 206.953125 C 250.519531 206.605469 250.445312 205.980469 250.277344 205.355469 C 249.8125 203.636719 248.226562 202.425781 246.460938 202.335938 C 245.324219 202.28125 244.390625 202.78125 243.421875 203.199219 C 241.726562 203.933594 240.925781 205.777344 241.136719 207.175781 C 241.554688 209.9375 242.777344 211.101562 245.375 211.710938 C 246.363281 211.941406 247.410156 211.878906 248.355469 211.273438 C 249.835938 210.320312 250.515625 208.980469 250.5 206.953125 Z M 261.519531 90.796875 C 265.9375 90.796875 270.355469 90.714844 274.773438 90.816406 C 279.359375 90.925781 283.949219 91.144531 288.476562 92.015625 C 290.554688 92.414062 292.550781 93.046875 294.425781 94.027344 C 297.414062 95.59375 299.273438 98.152344 300.535156 101.191406 C 301.402344 103.277344 301.832031 105.484375 302.195312 107.695312 C 302.957031 112.3125 303.238281 116.96875 303.039062 121.636719 C 302.855469 125.914062 302.253906 130.136719 300.886719 134.222656 C 299.382812 138.71875 296.613281 142.101562 292.371094 144.320312 C 287.425781 146.910156 282.226562 148.621094 276.695312 149.34375 C 276.199219 149.410156 275.703125 149.464844 275.21875 149.574219 C 273.441406 149.980469 271.648438 150.238281 269.820312 150.152344 C 269.382812 150.132812 269.101562 150.226562 269 150.738281 C 268.535156 153.050781 267.621094 155.226562 266.914062 157.464844 C 266.347656 159.265625 265.789062 161.070312 265.277344 162.882812 C 264.882812 164.273438 264.230469 165.53125 263.46875 166.738281 C 262.847656 167.710938 261.96875 167.679688 261.414062 166.632812 C 260.699219 165.277344 260.078125 163.878906 259.410156 162.5 C 258.277344 160.160156 257.339844 157.730469 256.148438 155.414062 C 255.851562 154.832031 255.554688 154.632812 254.859375 154.640625 C 250.796875 154.6875 246.71875 154.863281 242.679688 154.582031 C 237.925781 154.25 233.1875 153.605469 228.683594 151.871094 C 227.375 151.367188 226.175781 150.742188 225.097656 149.8125 C 221.851562 147.003906 218.867188 143.976562 216.359375 140.476562 C 214.398438 137.742188 213.40625 134.667969 212.855469 131.40625 C 212.082031 126.824219 211.855469 122.199219 212.058594 117.570312 C 212.25 113.230469 212.800781 108.921875 213.960938 104.714844 C 215.066406 100.714844 217.570312 97.855469 221.109375 95.78125 C 224.042969 94.0625 227.230469 93.113281 230.53125 92.464844 C 233.570312 91.863281 236.652344 91.613281 239.738281 91.324219 C 246.988281 90.636719 254.253906 90.808594 261.519531 90.796875 Z M 279.53125 136.929688 C 279.53125 136.929688 279.53125 136.925781 279.53125 136.925781 C 279.996094 136.925781 280.457031 136.925781 280.921875 136.925781 C 283.699219 136.925781 286.480469 136.9375 289.257812 136.917969 C 290.507812 136.910156 291.066406 136.316406 291.109375 135.078125 C 291.148438 133.898438 290.992188 132.738281 290.730469 131.59375 C 290.5 130.601562 290.359375 130.441406 289.355469 130.53125 C 287.796875 130.667969 286.222656 130.613281 284.675781 130.785156 C 283.679688 130.890625 282.683594 130.855469 281.699219 130.996094 C 280.328125 131.1875 278.945312 131.332031 277.566406 131.335938 C 272.691406 131.339844 267.816406 131.347656 262.941406 131.222656 C 257 131.070312 251.054688 131.078125 245.105469 131.304688 C 239.308594 131.527344 233.5 131.332031 227.699219 131.582031 C 227.453125 131.589844 227.199219 131.570312 226.953125 131.597656 C 226.707031 131.621094 226.46875 131.6875 226.222656 131.730469 C 225.59375 131.839844 225.304688 132.28125 225.265625 132.851562 C 225.179688 134.164062 224.953125 135.464844 225.03125 136.785156 C 225.085938 137.65625 225.433594 138.097656 226.308594 138.175781 C 226.835938 138.222656 227.386719 138.253906 227.90625 138.160156 C 230.578125 137.691406 233.289062 137.851562 235.972656 137.585938 C 237.597656 137.421875 239.234375 137.53125 240.871094 137.402344 C 243.101562 137.230469 245.347656 137.238281 247.585938 137.1875 C 255.667969 137 263.753906 137.285156 271.835938 136.949219 C 274.394531 136.839844 276.964844 136.929688 279.53125 136.929688 Z M 267.289062 104.648438 C 265.6875 104.746094 263.199219 104.621094 260.707031 104.785156 C 257.625 104.988281 254.519531 104.863281 251.429688 105.042969 C 249.265625 105.167969 247.097656 105.050781 244.925781 105.21875 C 242.59375 105.402344 240.238281 105.371094 237.894531 105.453125 C 234.589844 105.570312 231.273438 105.414062 227.972656 105.71875 C 226.984375 105.808594 226 105.910156 225.003906 105.957031 C 224.144531 105.996094 223.792969 106.480469 223.761719 107.371094 C 223.730469 108.261719 223.859375 109.140625 223.953125 110.023438 C 224.078125 111.25 224.054688 111.253906 225.265625 111.28125 C 227.367188 111.328125 229.457031 111.125 231.550781 111.078125 C 233.152344 111.042969 234.75 110.902344 236.335938 110.773438 C 238.78125 110.574219 241.230469 110.507812 243.675781 110.457031 C 246.90625 110.386719 250.140625 110.355469 253.382812 110.570312 C 255.855469 110.734375 258.355469 110.527344 260.84375 110.480469 C 265.429688 110.386719 270.019531 110.222656 274.609375 110.191406 C 276.671875 110.179688 278.730469 110.132812 280.792969 110.042969 C 283.988281 109.90625 287.171875 109.625 290.367188 109.558594 C 291.605469 109.535156 292.054688 108.753906 291.914062 107.65625 C 291.796875 106.746094 291.554688 105.847656 291.339844 104.953125 C 291.140625 104.113281 290.953125 103.957031 290.078125 104.003906 C 289.125 104.050781 288.15625 104.089844 287.226562 104.28125 C 285.125 104.710938 282.988281 104.710938 280.871094 104.804688 C 278.675781 104.898438 276.46875 104.875 274.261719 104.6875 C 272.246094 104.515625 270.203125 104.648438 267.289062 104.648438 Z M 224.402344 121.160156 C 224.402344 121.65625 224.386719 122.082031 224.402344 122.511719 C 224.429688 123.246094 224.679688 123.53125 225.402344 123.640625 C 225.683594 123.679688 225.972656 123.648438 226.257812 123.667969 C 228.113281 123.796875 229.945312 123.378906 231.792969 123.449219 C 233.894531 123.523438 235.980469 123.171875 238.082031 123.226562 C 238.1875 123.230469 238.296875 123.222656 238.398438 123.203125 C 240.601562 122.753906 242.851562 122.867188 245.070312 122.625 C 246.585938 122.460938 248.117188 122.5625 249.648438 122.429688 C 251.875 122.242188 254.121094 122.277344 256.359375 122.214844 C 265.21875 121.964844 274.089844 122.410156 282.949219 121.96875 C 283.949219 121.917969 284.933594 122.3125 285.921875 122.128906 C 287.234375 121.882812 288.546875 122.003906 289.859375 121.949219 C 290.179688 121.9375 290.503906 121.960938 290.820312 121.914062 C 291.839844 121.761719 292.160156 121.386719 292.175781 120.351562 C 292.191406 119.25 292.160156 118.152344 291.992188 117.054688 C 291.867188 116.253906 291.671875 116 290.851562 115.980469 C 289.535156 115.945312 288.226562 116.125 286.929688 116.289062 C 285.132812 116.515625 283.339844 116.746094 281.535156 116.808594 C 279.71875 116.867188 277.890625 116.722656 276.089844 116.882812 C 273.296875 117.128906 270.492188 117.203125 267.699219 117.433594 C 265.4375 117.621094 263.15625 117.507812 260.878906 117.621094 C 256.652344 117.832031 252.417969 117.605469 248.179688 117.84375 C 245.878906 117.972656 243.574219 118.234375 241.257812 118.121094 C 241.1875 118.117188 241.113281 118.117188 241.042969 118.128906 C 239.039062 118.460938 237.007812 118.371094 234.988281 118.496094 C 233.039062 118.617188 231.074219 118.542969 229.113281 118.539062 C 228.121094 118.539062 227.125 118.609375 226.140625 118.355469 C 225.773438 118.261719 225.355469 118.296875 224.972656 118.351562 C 224.421875 118.425781 224.128906 118.808594 224.28125 119.320312 C 224.472656 119.957031 224.339844 120.59375 224.402344 121.160156 Z M 224.402344 121.160156 " fill-opacity="1" fill-rule="nonzero"/></g><path fill="#24d6bd" d="M 163.878906 153.359375 C 167.121094 153.488281 169.992188 154.566406 172.347656 156.835938 C 173.605469 158.042969 174.976562 159.125 176.15625 160.417969 C 176.722656 161.039062 176.789062 160.996094 177.21875 160.289062 C 178.328125 158.464844 179.453125 156.640625 181.035156 155.179688 C 183.253906 153.132812 185.808594 151.777344 188.867188 151.421875 C 190.1875 151.269531 191.46875 151.234375 192.785156 151.433594 C 195.125 151.785156 197.984375 154.277344 197.925781 157.519531 C 197.878906 160.070312 196.984375 162.320312 195.816406 164.484375 C 194.121094 167.625 191.828125 170.347656 189.492188 173.03125 C 187.976562 174.773438 186.359375 176.429688 184.828125 178.15625 C 183.359375 179.8125 181.808594 181.378906 180.207031 182.890625 C 178.285156 184.710938 178.238281 184.480469 176.503906 183.203125 C 172.242188 180.0625 167.691406 177.328125 163.535156 174.042969 C 161.105469 172.121094 158.792969 170.085938 156.941406 167.558594 C 155.660156 165.8125 154.730469 163.925781 154.753906 161.789062 C 154.777344 159.246094 155.710938 156.964844 157.816406 155.375 C 159.589844 154.03125 161.59375 153.265625 163.878906 153.359375 Z M 228.554688 204.355469 C 227.863281 203.035156 226.777344 202.128906 225.242188 201.941406 C 224.167969 201.8125 223.109375 202.027344 222.101562 202.382812 C 221.355469 202.644531 220.695312 203.054688 220.261719 203.765625 C 218.96875 205.878906 218.800781 208.058594 220.003906 210.238281 C 221.925781 213.71875 226.636719 213.605469 228.46875 210.578125 C 229.054688 209.609375 229.296875 208.550781 229.335938 207.035156 C 229.390625 206.324219 229.046875 205.296875 228.554688 204.355469 Z M 269.613281 202.640625 C 268.886719 202.121094 267.972656 202 267.128906 201.746094 C 266.832031 201.65625 266.496094 201.71875 266.175781 201.792969 C 263.652344 202.398438 260.917969 205.921875 263.066406 209.125 C 263.507812 209.785156 264.039062 210.378906 264.679688 210.808594 C 265.777344 211.550781 266.976562 212.144531 268.363281 211.894531 C 270.8125 211.457031 271.988281 209.449219 272.070312 207.222656 C 272.164062 205.207031 271.167969 203.753906 269.613281 202.640625 Z M 250.277344 205.355469 C 249.8125 203.636719 248.226562 202.425781 246.460938 202.335938 C 245.324219 202.28125 244.390625 202.78125 243.421875 203.199219 C 241.726562 203.933594 240.925781 205.777344 241.136719 207.175781 C 241.554688 209.9375 242.777344 211.101562 245.375 211.710938 C 246.363281 211.941406 247.410156 211.878906 248.355469 211.273438 C 249.835938 210.320312 250.515625 208.980469 250.5 206.953125 C 250.519531 206.605469 250.445312 205.980469 250.277344 205.355469 Z M 279.53125 136.925781 C 279.996094 136.925781 280.457031 136.925781 280.921875 136.925781 C 283.699219 136.925781 286.480469 136.9375 289.257812 136.917969 C 290.507812 136.910156 291.066406 136.316406 291.109375 135.078125 C 291.148438 133.898438 290.992188 132.738281 290.730469 131.59375 C 290.5 130.601562 290.359375 130.441406 289.355469 130.53125 C 287.796875 130.667969 286.222656 130.613281 284.675781 130.785156 C 283.679688 130.890625 282.683594 130.855469 281.699219 130.996094 C 280.328125 131.1875 278.945312 131.332031 277.566406 131.335938 C 272.691406 131.339844 267.816406 131.347656 262.941406 131.222656 C 257 131.070312 251.054688 131.078125 245.105469 131.304688 C 239.308594 131.527344 233.5 131.332031 227.699219 131.582031 C 227.453125 131.589844 227.199219 131.570312 226.953125 131.597656 C 226.707031 131.621094 226.46875 131.6875 226.222656 131.730469 C 225.59375 131.839844 225.304688 132.28125 225.265625 132.851562 C 225.179688 134.164062 224.953125 135.464844 225.03125 136.785156 C 225.085938 137.65625 225.433594 138.097656 226.308594 138.175781 C 226.835938 138.222656 227.386719 138.253906 227.90625 138.160156 C 230.578125 137.691406 233.289062 137.851562 235.972656 137.585938 C 237.597656 137.421875 239.234375 137.53125 240.871094 137.402344 C 243.101562 137.230469 245.347656 137.238281 247.585938 137.1875 C 255.667969 137 263.753906 137.285156 271.835938 136.949219 C 274.394531 136.839844 276.964844 136.929688 279.53125 136.929688 C 279.53125 136.929688 279.53125 136.925781 279.53125 136.925781 Z M 260.707031 104.785156 C 257.625 104.988281 254.519531 104.863281 251.429688 105.042969 C 249.265625 105.167969 247.097656 105.050781 244.925781 105.21875 C 242.59375 105.402344 240.238281 105.371094 237.894531 105.453125 C 234.589844 105.570312 231.273438 105.414062 227.972656 105.71875 C 226.984375 105.808594 226 105.910156 225.003906 105.957031 C 224.144531 105.996094 223.792969 106.480469 223.761719 107.371094 C 223.730469 108.261719 223.859375 109.140625 223.953125 110.023438 C 224.078125 111.25 224.054688 111.253906 225.265625 111.28125 C 227.367188 111.328125 229.457031 111.125 231.550781 111.078125 C 233.152344 111.042969 234.75 110.902344 236.335938 110.773438 C 238.78125 110.574219 241.230469 110.507812 243.675781 110.457031 C 246.90625 110.386719 250.140625 110.355469 253.382812 110.570312 C 255.855469 110.734375 258.355469 110.527344 260.84375 110.480469 C 265.429688 110.386719 270.019531 110.222656 274.609375 110.191406 C 276.671875 110.179688 278.730469 110.132812 280.792969 110.042969 C 283.988281 109.90625 287.171875 109.625 290.367188 109.558594 C 291.605469 109.535156 292.054688 108.753906 291.914062 107.65625 C 291.796875 106.746094 291.554688 105.847656 291.339844 104.953125 C 291.140625 104.113281 290.953125 103.957031 290.078125 104.003906 C 289.125 104.050781 288.15625 104.089844 287.226562 104.28125 C 285.125 104.710938 282.988281 104.710938 280.871094 104.804688 C 278.675781 104.898438 276.46875 104.875 274.261719 104.6875 C 272.246094 104.515625 270.203125 104.648438 267.289062 104.648438 C 265.6875 104.746094 263.199219 104.621094 260.707031 104.785156 Z M 224.402344 122.511719 C 224.429688 123.246094 224.679688 123.53125 225.402344 123.640625 C 225.683594 123.679688 225.972656 123.648438 226.257812 123.667969 C 228.113281 123.796875 229.945312 123.378906 231.792969 123.449219 C 233.894531 123.523438 235.980469 123.171875 238.082031 123.226562 C 238.1875 123.230469 238.296875 123.222656 238.398438 123.203125 C 240.601562 122.753906 242.851562 122.867188 245.070312 122.625 C 246.585938 122.460938 248.117188 122.5625 249.648438 122.429688 C 251.875 122.242188 254.121094 122.277344 256.359375 122.214844 C 265.21875 121.964844 274.089844 122.410156 282.949219 121.96875 C 283.949219 121.917969 284.933594 122.3125 285.921875 122.128906 C 287.234375 121.882812 288.546875 122.003906 289.859375 121.949219 C 290.179688 121.9375 290.503906 121.960938 290.820312 121.914062 C 291.839844 121.761719 292.160156 121.386719 292.175781 120.351562 C 292.191406 119.25 292.160156 118.152344 291.992188 117.054688 C 291.867188 116.253906 291.671875 116 290.851562 115.980469 C 289.535156 115.945312 288.226562 116.125 286.929688 116.289062 C 285.132812 116.515625 283.339844 116.746094 281.535156 116.808594 C 279.71875 116.867188 277.890625 116.722656 276.089844 116.882812 C 273.296875 117.128906 270.492188 117.203125 267.699219 117.433594 C 265.4375 117.621094 263.15625 117.507812 260.878906 117.621094 C 256.652344 117.832031 252.417969 117.605469 248.179688 117.84375 C 245.878906 117.972656 243.574219 118.234375 241.257812 118.121094 C 241.1875 118.117188 241.113281 118.117188 241.042969 118.128906 C 239.039062 118.460938 237.007812 118.371094 234.988281 118.496094 C 233.039062 118.617188 231.074219 118.542969 229.113281 118.539062 C 228.121094 118.539062 227.125 118.609375 226.140625 118.355469 C 225.773438 118.261719 225.355469 118.296875 224.972656 118.351562 C 224.421875 118.425781 224.128906 118.808594 224.28125 119.320312 C 224.472656 119.957031 224.339844 120.59375 224.402344 121.160156 C 224.402344 121.65625 224.386719 122.082031 224.402344 122.511719 Z M 224.402344 122.511719 " fill-opacity="1" fill-rule="nonzero"/><g mask="url(#b1aa1ab508)"><g transform="matrix(1, 0, 0, 1, 1045, 456)"><g clip-path="url(#59c2338546)"><g clip-path="url(#4e6bfbfb26)"><g clip-path="url(#f84be7768f)"><g clip-path="url(#d6136e850c)"><path fill="#b8007a" d="M 200.816406 162.1875 C 199.746094 167.023438 198.308594 171.753906 196.71875 176.433594 C 195.246094 180.769531 193.429688 184.960938 191.117188 188.929688 C 187.558594 195.035156 182.371094 199.144531 175.8125 201.660156 C 170.003906 203.886719 163.9375 204.898438 157.832031 205.796875 C 152.503906 206.582031 147.136719 206.632812 141.769531 206.785156 C 137.503906 206.910156 133.234375 207.089844 128.988281 207.5625 C 124.476562 208.058594 120.511719 209.726562 117.136719 212.792969 C 114.78125 214.929688 112.589844 217.222656 110.5 219.609375 C 105.269531 225.582031 100.207031 231.6875 95.488281 238.078125 C 94.292969 239.703125 94.128906 239.699219 92.671875 239.121094 C 91.707031 238.738281 91.511719 238.078125 91.476562 237.117188 C 91.316406 232.851562 91.167969 228.582031 90.621094 224.339844 C 89.703125 217.238281 88.414062 210.21875 85.425781 203.644531 C 83.714844 199.878906 81.5 196.402344 78.035156 194.023438 C 75.125 192.023438 71.976562 190.386719 68.550781 189.375 C 63.976562 188.019531 59.511719 186.300781 55.324219 184.078125 C 47.402344 179.871094 42.066406 173.488281 40.039062 164.558594 C 38.550781 158.015625 38.285156 151.390625 38.59375 144.726562 C 38.910156 137.898438 39.730469 131.125 40.859375 124.378906 C 41.820312 118.65625 42.867188 112.957031 44.46875 107.378906 C 45.609375 103.390625 47.035156 99.503906 49.140625 95.890625 C 52.085938 90.824219 56.246094 87.644531 62.203125 86.972656 C 66.652344 86.472656 71.09375 86.554688 75.539062 86.882812 C 83.824219 87.492188 91.992188 88.839844 100.109375 90.625 C 107.496094 92.25 114.933594 93.660156 122.378906 95.007812 C 131.503906 96.660156 140.597656 98.441406 149.695312 100.242188 C 155.09375 101.3125 160.441406 102.570312 165.714844 104.085938 C 170.820312 105.550781 175.988281 106.773438 181.085938 108.261719 C 181.320312 108.328125 181.550781 108.410156 181.789062 108.460938 C 183.332031 108.796875 183.953125 109.671875 184.246094 111.316406 C 185.71875 119.570312 187.816406 127.65625 191.511719 135.246094 C 193.820312 139.988281 196.734375 144.335938 200.078125 148.402344 C 200.660156 149.109375 201.183594 149.886719 201.867188 150.480469 C 203.078125 151.53125 203.3125 152.652344 202.839844 154.199219 C 202.042969 156.824219 201.480469 159.523438 200.816406 162.1875 Z M 103.460938 120.550781 C 99.699219 119.453125 96.050781 119.898438 92.546875 121.398438 C 88.386719 123.175781 85.890625 126.582031 84.800781 130.800781 C 83.886719 134.347656 84.648438 137.871094 86.058594 141.304688 C 88.097656 146.269531 91.101562 150.613281 94.347656 154.808594 C 99.902344 161.992188 106.34375 168.417969 112.136719 175.402344 C 114.496094 178.246094 114.476562 178.648438 118.425781 176.414062 C 121.710938 174.554688 124.941406 172.589844 128.066406 170.445312 C 131.328125 168.207031 134.699219 166.121094 137.941406 163.847656 C 142.933594 160.347656 147.875 156.769531 151.992188 152.242188 C 154.824219 149.125 157.242188 145.753906 158.375 141.527344 C 159.8125 136.160156 156.085938 130.832031 152.339844 129.28125 C 150.230469 128.410156 148.085938 127.9375 145.828125 127.648438 C 140.59375 126.976562 135.785156 128.175781 131.25 130.664062 C 128.015625 132.4375 125.390625 135.011719 122.789062 137.585938 C 121.78125 138.582031 121.65625 138.628906 120.96875 137.359375 C 119.539062 134.726562 117.703125 132.359375 116.113281 129.832031 C 113.128906 125.082031 108.800781 122.105469 103.460938 120.550781 Z M 290.074219 250.882812 C 288.769531 256.859375 286.757812 262.613281 284.710938 268.367188 C 283.242188 272.503906 281.878906 276.683594 280.027344 280.667969 C 277.753906 285.566406 274.9375 290.113281 270.898438 293.808594 C 268.273438 296.214844 265.21875 297.808594 261.820312 298.761719 C 259.230469 299.488281 256.585938 299.949219 253.910156 300.234375 C 245.707031 301.117188 237.496094 301.664062 229.253906 300.882812 C 224.09375 300.394531 218.953125 299.746094 213.777344 299.421875 C 210.117188 299.191406 206.460938 299.304688 202.804688 299.445312 C 201.332031 299.503906 200.355469 300.101562 199.578125 301.414062 C 197.183594 305.460938 195.210938 309.730469 192.929688 313.832031 C 191.207031 316.925781 189.539062 320.046875 187.617188 323.023438 C 187.019531 323.945312 186.414062 324.871094 185.578125 325.601562 C 183.917969 327.046875 182.210938 326.707031 181.269531 324.722656 C 180.589844 323.285156 180.101562 321.777344 179.738281 320.222656 C 178.214844 313.675781 177.105469 307.050781 175.917969 300.445312 C 175.347656 297.257812 174.417969 294.152344 173.992188 290.9375 C 173.898438 290.246094 173.378906 289.765625 172.964844 289.238281 C 171.378906 287.238281 169.277344 285.851562 167.1875 284.492188 C 159.042969 279.195312 151.242188 273.429688 143.550781 267.511719 C 138.261719 263.445312 134.871094 258.027344 132.816406 251.699219 C 131.242188 246.84375 131.046875 241.878906 131.289062 236.855469 C 131.476562 232.949219 131.730469 229.050781 132.964844 225.296875 C 133.363281 224.082031 133.832031 222.886719 134.3125 221.703125 C 134.695312 220.765625 135.292969 220.316406 136.445312 220.488281 C 140.847656 221.136719 145.285156 221.535156 149.738281 221.578125 C 161.207031 221.691406 172.019531 219.195312 181.957031 213.320312 C 183.605469 212.347656 185.042969 211.140625 186.289062 209.691406 C 188.003906 207.703125 190.003906 205.988281 191.75 204.023438 C 195.179688 200.175781 198 195.910156 200.636719 191.503906 C 201.742188 189.65625 201.753906 189.648438 203.917969 189.878906 C 205.859375 190.085938 207.773438 190.527344 209.675781 190.914062 C 214.761719 191.953125 219.898438 192.6875 224.984375 193.722656 C 231.492188 195.050781 238.046875 196.144531 244.65625 196.933594 C 249.074219 197.460938 253.449219 198.3125 257.816406 199.207031 C 262.6875 200.203125 267.410156 201.582031 271.933594 203.609375 C 278.691406 206.628906 284.5 210.878906 288.648438 217.121094 C 291.03125 220.710938 292.089844 224.769531 292.542969 229.015625 C 293.125 234.410156 292.675781 239.734375 291.519531 245.011719 C 291.089844 246.980469 290.558594 248.925781 290.074219 250.882812 Z M 190.171875 236.863281 C 190.558594 235.699219 190.410156 233.851562 189.980469 232.082031 C 189.371094 229.601562 187.941406 227.640625 185.464844 226.699219 C 183.734375 226.039062 181.886719 225.960938 180.058594 226.136719 C 178.714844 226.261719 177.445312 226.671875 176.429688 227.671875 C 173.40625 230.65625 172.222656 234.210938 173.328125 238.335938 C 175.085938 244.914062 182.96875 246.675781 187.269531 242.394531 C 188.640625 241.027344 189.484375 239.363281 190.171875 236.863281 Z M 261.179688 254.816406 C 262.164062 251.5 261.105469 248.679688 258.980469 246.1875 C 257.988281 245.019531 256.511719 244.441406 255.214844 243.667969 C 254.765625 243.398438 254.175781 243.359375 253.617188 243.355469 C 249.167969 243.316406 243.164062 248.046875 245.414062 254.265625 C 245.878906 255.546875 246.511719 256.75 247.402344 257.734375 C 248.921875 259.417969 250.675781 260.902344 253.078125 261.058594 C 257.335938 261.339844 260.117188 258.488281 261.179688 254.816406 Z M 225.40625 245.464844 C 225.585938 244.894531 225.71875 243.820312 225.695312 242.710938 C 225.636719 239.664062 223.496094 236.992188 220.59375 236.117188 C 218.730469 235.554688 216.964844 236 215.1875 236.296875 C 212.0625 236.816406 209.96875 239.550781 209.742188 241.964844 C 209.300781 246.734375 210.847656 249.171875 214.921875 251.257812 C 216.472656 252.050781 218.234375 252.378906 220.058594 251.761719 C 222.914062 250.789062 224.597656 248.84375 225.40625 245.464844 Z M 291.703125 56.804688 C 299.050781 58.632812 306.4375 60.320312 313.738281 62.316406 C 321.324219 64.394531 328.871094 66.652344 336.039062 69.964844 C 339.328125 71.488281 342.390625 73.363281 345.101562 75.773438 C 349.421875 79.613281 351.460938 84.636719 352.304688 90.210938 C 352.886719 94.035156 352.691406 97.886719 352.382812 101.71875 C 351.742188 109.710938 350.285156 117.570312 348.027344 125.253906 C 345.957031 132.292969 343.210938 139.066406 339.25 145.296875 C 334.890625 152.15625 328.890625 156.636719 320.917969 158.578125 C 311.625 160.839844 302.265625 161.539062 292.765625 160.460938 C 291.917969 160.363281 291.066406 160.25 290.214844 160.234375 C 287.09375 160.175781 284.007812 159.859375 281 158.964844 C 280.277344 158.75 279.773438 158.789062 279.390625 159.601562 C 277.664062 163.253906 275.246094 166.496094 273.148438 169.929688 C 271.460938 172.6875 269.789062 175.457031 268.1875 178.265625 C 266.957031 180.414062 265.351562 182.238281 263.582031 183.925781 C 262.152344 185.292969 260.699219 184.878906 260.214844 182.902344 C 259.585938 180.355469 259.125 177.769531 258.585938 175.203125 C 257.664062 170.84375 257.113281 166.414062 256.089844 162.070312 C 255.832031 160.976562 255.421875 160.523438 254.261719 160.25 C 247.488281 158.648438 240.632812 157.257812 234.023438 155.121094 C 226.257812 152.613281 218.640625 149.582031 211.867188 144.832031 C 209.902344 143.453125 208.160156 141.921875 206.753906 139.929688 C 202.515625 133.921875 198.800781 127.652344 196.074219 120.792969 C 193.941406 115.433594 193.5625 109.917969 193.992188 104.261719 C 194.601562 96.316406 196.125 88.535156 198.378906 80.917969 C 200.488281 73.777344 203.1875 66.839844 206.855469 60.324219 C 210.34375 54.125 215.683594 50.402344 222.425781 48.414062 C 228.019531 46.765625 233.71875 46.503906 239.46875 46.785156 C 244.777344 47.042969 250.007812 47.898438 255.257812 48.691406 C 267.601562 50.546875 279.617188 53.832031 291.703125 56.804688 Z M 302.613281 140.984375 C 302.613281 140.980469 302.613281 140.976562 302.613281 140.972656 C 303.386719 141.164062 304.15625 141.355469 304.925781 141.546875 C 309.550781 142.695312 314.167969 143.863281 318.796875 144.980469 C 320.875 145.480469 322.050781 144.726562 322.636719 142.679688 C 323.1875 140.734375 323.410156 138.742188 323.441406 136.734375 C 323.46875 134.988281 323.300781 134.664062 321.597656 134.394531 C 318.945312 133.980469 316.351562 133.242188 313.703125 132.882812 C 312.007812 132.652344 310.363281 132.179688 308.671875 132.003906 C 306.308594 131.757812 303.949219 131.429688 301.65625 130.863281 C 293.546875 128.855469 285.433594 126.859375 277.375 124.636719 C 267.558594 121.929688 257.660156 119.492188 247.675781 117.410156 C 237.945312 115.382812 228.359375 112.664062 218.609375 110.679688 C 218.191406 110.597656 217.78125 110.457031 217.359375 110.398438 C 216.941406 110.335938 216.515625 110.347656 216.09375 110.316406 C 215 110.242188 214.339844 110.855469 214.039062 111.792969 C 213.347656 113.933594 212.4375 116.003906 212.023438 118.234375 C 211.75 119.707031 212.148438 120.582031 213.570312 121.074219 C 214.429688 121.375 215.335938 121.648438 216.238281 121.710938 C 220.871094 122.035156 225.316406 123.417969 229.890625 124.082031 C 232.65625 124.484375 235.339844 125.34375 238.117188 125.804688 C 241.894531 126.433594 245.628906 127.378906 249.371094 128.21875 C 262.890625 131.242188 276.222656 135.058594 289.804688 137.832031 C 294.109375 138.710938 298.34375 139.921875 302.613281 140.984375 Z M 295.582031 82.234375 C 292.875 81.734375 288.789062 80.496094 284.574219 79.742188 C 279.363281 78.804688 274.253906 77.3125 269.035156 76.339844 C 265.386719 75.65625 261.832031 74.558594 258.148438 73.949219 C 254.191406 73.289062 250.289062 72.265625 246.355469 71.433594 C 240.808594 70.261719 235.359375 68.636719 229.746094 67.777344 C 228.0625 67.519531 226.378906 67.28125 224.707031 66.945312 C 223.261719 66.65625 222.476562 67.320312 222.054688 68.785156 C 221.636719 70.257812 221.492188 71.769531 221.277344 73.277344 C 220.980469 75.367188 220.941406 75.367188 222.945312 75.914062 C 226.417969 76.855469 229.976562 77.386719 233.480469 78.167969 C 236.160156 78.769531 238.871094 79.199219 241.566406 79.640625 C 245.714844 80.320312 249.816406 81.21875 253.902344 82.140625 C 259.308594 83.359375 264.703125 84.640625 270.003906 86.335938 C 274.050781 87.632812 278.296875 88.324219 282.449219 89.269531 C 290.121094 91.011719 297.820312 92.628906 305.46875 94.476562 C 308.902344 95.304688 312.347656 96.078125 315.8125 96.78125 C 321.179688 97.875 326.597656 98.71875 331.941406 99.929688 C 334.007812 100.398438 335.078125 99.285156 335.296875 97.402344 C 335.476562 95.839844 335.449219 94.246094 335.460938 92.667969 C 335.472656 91.191406 335.226562 90.855469 333.753906 90.566406 C 332.144531 90.257812 330.519531 89.921875 328.890625 89.855469 C 325.21875 89.699219 321.664062 88.820312 318.105469 88.097656 C 314.414062 87.347656 310.753906 86.398438 307.160156 85.175781 C 303.878906 84.054688 300.425781 83.4375 295.582031 82.234375 Z M 217.425781 91.984375 C 217.222656 92.808594 217.023438 93.515625 216.871094 94.234375 C 216.613281 95.464844 216.910156 96.046875 218.070312 96.523438 C 218.519531 96.710938 219.011719 96.777344 219.476562 96.925781 C 222.507812 97.902344 225.730469 97.964844 228.777344 98.84375 C 232.242188 99.839844 235.855469 100.109375 239.324219 101.070312 C 239.5 101.121094 239.683594 101.15625 239.867188 101.164062 C 243.714844 101.324219 247.410156 102.441406 251.203125 102.960938 C 253.789062 103.3125 256.296875 104.109375 258.894531 104.527344 C 262.675781 105.132812 266.398438 106.121094 270.144531 106.9375 C 284.988281 110.179688 299.554688 114.585938 314.476562 117.507812 C 316.160156 117.839844 317.636719 118.898438 319.355469 119 C 321.636719 119.132812 323.773438 119.878906 325.976562 120.328125 C 326.515625 120.4375 327.046875 120.613281 327.589844 120.664062 C 329.347656 120.832031 330.039062 120.347656 330.492188 118.625 C 330.972656 116.800781 331.375 114.960938 331.546875 113.070312 C 331.671875 111.6875 331.449219 111.183594 330.089844 110.808594 C 327.914062 110.207031 325.664062 109.96875 323.441406 109.703125 C 320.363281 109.335938 317.285156 108.984375 314.253906 108.339844 C 311.210938 107.691406 308.230469 106.691406 305.164062 106.210938 C 300.417969 105.472656 295.726562 104.441406 290.984375 103.667969 C 287.140625 103.042969 283.398438 101.910156 279.5625 101.160156 C 272.445312 99.769531 265.492188 97.644531 258.347656 96.289062 C 254.464844 95.554688 250.523438 95.039062 246.71875 93.890625 C 246.601562 93.855469 246.480469 93.828125 246.359375 93.820312 C 242.886719 93.542969 239.546875 92.550781 236.140625 91.925781 C 232.84375 91.320312 229.601562 90.390625 226.347656 89.574219 C 224.695312 89.160156 223.011719 88.871094 221.476562 88.039062 C 220.90625 87.730469 220.195312 87.617188 219.535156 87.546875 C 218.589844 87.445312 217.941406 87.957031 217.988281 88.875 C 218.042969 90.015625 217.558594 91.019531 217.425781 91.984375 Z M 103.460938 120.550781 C 108.800781 122.105469 113.128906 125.082031 116.113281 129.832031 C 117.703125 132.359375 119.539062 134.726562 120.96875 137.359375 C 121.65625 138.628906 121.78125 138.582031 122.789062 137.585938 C 125.390625 135.011719 128.015625 132.4375 131.25 130.664062 C 135.785156 128.175781 140.59375 126.976562 145.828125 127.648438 C 148.085938 127.9375 150.230469 128.410156 152.339844 129.28125 C 156.085938 130.832031 159.8125 136.160156 158.375 141.527344 C 157.242188 145.753906 154.824219 149.125 151.992188 152.242188 C 147.875 156.769531 142.933594 160.347656 137.941406 163.847656 C 134.699219 166.121094 131.328125 168.207031 128.066406 170.445312 C 124.941406 172.589844 121.710938 174.554688 118.425781 176.414062 C 114.476562 178.648438 114.496094 178.246094 112.136719 175.402344 C 106.34375 168.417969 99.902344 161.992188 94.347656 154.808594 C 91.101562 150.613281 88.097656 146.269531 86.058594 141.304688 C 84.648438 137.871094 83.886719 134.347656 84.800781 130.800781 C 85.890625 126.582031 88.386719 123.175781 92.546875 121.398438 C 96.050781 119.898438 99.699219 119.453125 103.460938 120.550781 Z M 189.980469 232.082031 C 189.371094 229.601562 187.941406 227.640625 185.464844 226.699219 C 183.734375 226.039062 181.886719 225.960938 180.058594 226.136719 C 178.714844 226.261719 177.445312 226.671875 176.429688 227.671875 C 173.40625 230.65625 172.222656 234.210938 173.328125 238.335938 C 175.085938 244.914062 182.96875 246.675781 187.269531 242.394531 C 188.640625 241.027344 189.484375 239.363281 190.171875 236.863281 C 190.558594 235.699219 190.410156 233.851562 189.980469 232.082031 Z M 258.980469 246.1875 C 257.988281 245.019531 256.511719 244.441406 255.214844 243.667969 C 254.765625 243.398438 254.175781 243.359375 253.617188 243.355469 C 249.167969 243.316406 243.164062 248.046875 245.414062 254.265625 C 245.878906 255.546875 246.511719 256.75 247.402344 257.734375 C 248.921875 259.417969 250.675781 260.902344 253.078125 261.058594 C 257.335938 261.339844 260.117188 258.488281 261.179688 254.816406 C 262.164062 251.5 261.105469 248.679688 258.980469 246.1875 Z M 225.695312 242.710938 C 225.636719 239.664062 223.496094 236.992188 220.59375 236.117188 C 218.730469 235.554688 216.964844 236 215.1875 236.296875 C 212.0625 236.816406 209.96875 239.550781 209.742188 241.964844 C 209.300781 246.734375 210.847656 249.171875 214.921875 251.257812 C 216.472656 252.050781 218.234375 252.378906 220.058594 251.761719 C 222.914062 250.789062 224.597656 248.84375 225.40625 245.464844 C 225.585938 244.894531 225.71875 243.820312 225.695312 242.710938 Z M 302.613281 140.972656 C 303.386719 141.164062 304.15625 141.355469 304.925781 141.546875 C 309.550781 142.695312 314.167969 143.863281 318.796875 144.980469 C 320.875 145.480469 322.050781 144.726562 322.636719 142.679688 C 323.1875 140.734375 323.410156 138.742188 323.441406 136.734375 C 323.46875 134.988281 323.300781 134.664062 321.597656 134.394531 C 318.945312 133.980469 316.351562 133.242188 313.703125 132.882812 C 312.007812 132.652344 310.363281 132.179688 308.671875 132.003906 C 306.308594 131.757812 303.949219 131.429688 301.65625 130.863281 C 293.546875 128.855469 285.433594 126.859375 277.375 124.636719 C 267.558594 121.929688 257.660156 119.492188 247.675781 117.410156 C 237.945312 115.382812 228.359375 112.664062 218.609375 110.679688 C 218.191406 110.597656 217.78125 110.457031 217.359375 110.398438 C 216.941406 110.335938 216.515625 110.347656 216.09375 110.316406 C 215 110.242188 214.339844 110.855469 214.039062 111.792969 C 213.347656 113.933594 212.4375 116.003906 212.023438 118.234375 C 211.75 119.707031 212.148438 120.582031 213.570312 121.074219 C 214.429688 121.375 215.335938 121.648438 216.238281 121.710938 C 220.871094 122.035156 225.316406 123.417969 229.890625 124.082031 C 232.65625 124.484375 235.339844 125.34375 238.117188 125.804688 C 241.894531 126.433594 245.628906 127.378906 249.371094 128.21875 C 262.890625 131.242188 276.222656 135.058594 289.804688 137.832031 C 294.109375 138.710938 298.34375 139.921875 302.613281 140.984375 C 302.613281 140.980469 302.613281 140.976562 302.613281 140.972656 Z M 284.574219 79.742188 C 279.363281 78.804688 274.253906 77.3125 269.035156 76.339844 C 265.386719 75.65625 261.832031 74.558594 258.148438 73.949219 C 254.191406 73.289062 250.289062 72.265625 246.355469 71.433594 C 240.808594 70.261719 235.359375 68.636719 229.746094 67.777344 C 228.0625 67.519531 226.378906 67.28125 224.707031 66.945312 C 223.261719 66.65625 222.476562 67.320312 222.054688 68.785156 C 221.636719 70.257812 221.492188 71.769531 221.277344 73.277344 C 220.980469 75.367188 220.941406 75.367188 222.945312 75.914062 C 226.417969 76.855469 229.976562 77.386719 233.480469 78.167969 C 236.160156 78.769531 238.871094 79.199219 241.566406 79.640625 C 245.714844 80.320312 249.816406 81.21875 253.902344 82.140625 C 259.308594 83.359375 264.703125 84.640625 270.003906 86.335938 C 274.050781 87.632812 278.296875 88.324219 282.449219 89.269531 C 290.121094 91.011719 297.820312 92.628906 305.46875 94.476562 C 308.902344 95.304688 312.347656 96.078125 315.8125 96.78125 C 321.179688 97.875 326.597656 98.71875 331.941406 99.929688 C 334.007812 100.398438 335.078125 99.285156 335.296875 97.402344 C 335.476562 95.839844 335.449219 94.246094 335.460938 92.667969 C 335.472656 91.191406 335.226562 90.855469 333.753906 90.566406 C 332.144531 90.257812 330.519531 89.921875 328.890625 89.855469 C 325.21875 89.699219 321.664062 88.820312 318.105469 88.097656 C 314.414062 87.347656 310.753906 86.398438 307.160156 85.175781 C 303.878906 84.054688 300.425781 83.4375 295.582031 82.234375 C 292.875 81.734375 288.789062 80.496094 284.574219 79.742188 Z M 216.871094 94.234375 C 216.613281 95.464844 216.910156 96.046875 218.070312 96.523438 C 218.519531 96.710938 219.011719 96.777344 219.476562 96.925781 C 222.507812 97.902344 225.730469 97.964844 228.777344 98.84375 C 232.242188 99.839844 235.855469 100.109375 239.324219 101.070312 C 239.5 101.121094 239.683594 101.15625 239.867188 101.164062 C 243.714844 101.324219 247.410156 102.441406 251.203125 102.960938 C 253.789062 103.3125 256.296875 104.109375 258.894531 104.527344 C 262.675781 105.132812 266.398438 106.121094 270.144531 106.9375 C 284.988281 110.179688 299.554688 114.585938 314.476562 117.507812 C 316.160156 117.839844 317.636719 118.898438 319.355469 119 C 321.636719 119.132812 323.773438 119.878906 325.976562 120.328125 C 326.515625 120.4375 327.046875 120.613281 327.589844 120.664062 C 329.347656 120.832031 330.039062 120.347656 330.492188 118.625 C 330.972656 116.800781 331.375 114.960938 331.546875 113.070312 C 331.671875 111.6875 331.449219 111.183594 330.089844 110.808594 C 327.914062 110.207031 325.664062 109.96875 323.441406 109.703125 C 320.363281 109.335938 317.285156 108.984375 314.253906 108.339844 C 311.210938 107.691406 308.230469 106.691406 305.164062 106.210938 C 300.417969 105.472656 295.726562 104.441406 290.984375 103.667969 C 287.140625 103.042969 283.398438 101.910156 279.5625 101.160156 C 272.445312 99.769531 265.492188 97.644531 258.347656 96.289062 C 254.464844 95.554688 250.523438 95.039062 246.71875 93.890625 C 246.601562 93.855469 246.480469 93.828125 246.359375 93.820312 C 242.886719 93.542969 239.546875 92.550781 236.140625 91.925781 C 232.84375 91.320312 229.601562 90.390625 226.347656 89.574219 C 224.695312 89.160156 223.011719 88.871094 221.476562 88.039062 C 220.90625 87.730469 220.195312 87.617188 219.535156 87.546875 C 218.589844 87.445312 217.941406 87.957031 217.988281 88.875 C 218.042969 90.015625 217.558594 91.019531 217.425781 91.984375 C 217.222656 92.808594 217.023438 93.515625 216.871094 94.234375 Z M 216.871094 94.234375 " fill-opacity="1" fill-rule="nonzero"/><path fill="#b8007a" d="M 200.816406 162.1875 C 199.746094 167.023438 198.308594 171.753906 196.71875 176.433594 C 195.246094 180.769531 193.429688 184.960938 191.117188 188.929688 C 187.558594 195.035156 182.371094 199.144531 175.8125 201.660156 C 170.003906 203.886719 163.9375 204.898438 157.832031 205.796875 C 152.503906 206.582031 147.136719 206.632812 141.769531 206.785156 C 137.503906 206.910156 133.234375 207.089844 128.988281 207.5625 C 124.476562 208.058594 120.511719 209.726562 117.136719 212.792969 C 114.78125 214.929688 112.589844 217.222656 110.5 219.609375 C 105.269531 225.582031 100.207031 231.6875 95.488281 238.078125 C 94.292969 239.703125 94.128906 239.699219 92.671875 239.121094 C 91.707031 238.738281 91.511719 238.078125 91.476562 237.117188 C 91.316406 232.851562 91.167969 228.582031 90.621094 224.339844 C 89.703125 217.238281 88.414062 210.21875 85.425781 203.644531 C 83.714844 199.878906 81.5 196.402344 78.035156 194.023438 C 75.125 192.023438 71.976562 190.386719 68.550781 189.375 C 63.976562 188.019531 59.511719 186.300781 55.324219 184.078125 C 47.402344 179.871094 42.066406 173.488281 40.039062 164.558594 C 38.550781 158.015625 38.285156 151.390625 38.59375 144.726562 C 38.910156 137.898438 39.730469 131.125 40.859375 124.378906 C 41.820312 118.65625 42.867188 112.957031 44.46875 107.378906 C 45.609375 103.390625 47.035156 99.503906 49.140625 95.890625 C 52.085938 90.824219 56.246094 87.644531 62.203125 86.972656 C 66.652344 86.472656 71.09375 86.554688 75.539062 86.882812 C 83.824219 87.492188 91.992188 88.839844 100.109375 90.625 C 107.496094 92.25 114.933594 93.660156 122.378906 95.007812 C 131.503906 96.660156 140.597656 98.441406 149.695312 100.242188 C 155.09375 101.3125 160.441406 102.570312 165.714844 104.085938 C 170.820312 105.550781 175.988281 106.773438 181.085938 108.261719 C 181.320312 108.328125 181.550781 108.410156 181.789062 108.460938 C 183.332031 108.796875 183.953125 109.671875 184.246094 111.316406 C 185.71875 119.570312 187.816406 127.65625 191.511719 135.246094 C 193.820312 139.988281 196.734375 144.335938 200.078125 148.402344 C 200.660156 149.109375 201.183594 149.886719 201.867188 150.480469 C 203.078125 151.53125 203.3125 152.652344 202.839844 154.199219 C 202.042969 156.824219 201.480469 159.523438 200.816406 162.1875 Z M 103.460938 120.550781 C 99.699219 119.453125 96.050781 119.898438 92.546875 121.398438 C 88.386719 123.175781 85.890625 126.582031 84.800781 130.800781 C 83.886719 134.347656 84.648438 137.871094 86.058594 141.304688 C 88.097656 146.269531 91.101562 150.613281 94.347656 154.808594 C 99.902344 161.992188 106.34375 168.417969 112.136719 175.402344 C 114.496094 178.246094 114.476562 178.648438 118.425781 176.414062 C 121.710938 174.554688 124.941406 172.589844 128.066406 170.445312 C 131.328125 168.207031 134.699219 166.121094 137.941406 163.847656 C 142.933594 160.347656 147.875 156.769531 151.992188 152.242188 C 154.824219 149.125 157.242188 145.753906 158.375 141.527344 C 159.8125 136.160156 156.085938 130.832031 152.339844 129.28125 C 150.230469 128.410156 148.085938 127.9375 145.828125 127.648438 C 140.59375 126.976562 135.785156 128.175781 131.25 130.664062 C 128.015625 132.4375 125.390625 135.011719 122.789062 137.585938 C 121.78125 138.582031 121.65625 138.628906 120.96875 137.359375 C 119.539062 134.726562 117.703125 132.359375 116.113281 129.832031 C 113.128906 125.082031 108.800781 122.105469 103.460938 120.550781 Z M 290.074219 250.882812 C 288.769531 256.859375 286.757812 262.613281 284.710938 268.367188 C 283.242188 272.503906 281.878906 276.683594 280.027344 280.667969 C 277.753906 285.566406 274.9375 290.113281 270.898438 293.808594 C 268.273438 296.214844 265.21875 297.808594 261.820312 298.761719 C 259.230469 299.488281 256.585938 299.949219 253.910156 300.234375 C 245.707031 301.117188 237.496094 301.664062 229.253906 300.882812 C 224.09375 300.394531 218.953125 299.746094 213.777344 299.421875 C 210.117188 299.191406 206.460938 299.304688 202.804688 299.445312 C 201.332031 299.503906 200.355469 300.101562 199.578125 301.414062 C 197.183594 305.460938 195.210938 309.730469 192.929688 313.832031 C 191.207031 316.925781 189.539062 320.046875 187.617188 323.023438 C 187.019531 323.945312 186.414062 324.871094 185.578125 325.601562 C 183.917969 327.046875 182.210938 326.707031 181.269531 324.722656 C 180.589844 323.285156 180.101562 321.777344 179.738281 320.222656 C 178.214844 313.675781 177.105469 307.050781 175.917969 300.445312 C 175.347656 297.257812 174.417969 294.152344 173.992188 290.9375 C 173.898438 290.246094 173.378906 289.765625 172.964844 289.238281 C 171.378906 287.238281 169.277344 285.851562 167.1875 284.492188 C 159.042969 279.195312 151.242188 273.429688 143.550781 267.511719 C 138.261719 263.445312 134.871094 258.027344 132.816406 251.699219 C 131.242188 246.84375 131.046875 241.878906 131.289062 236.855469 C 131.476562 232.949219 131.730469 229.050781 132.964844 225.296875 C 133.363281 224.082031 133.832031 222.886719 134.3125 221.703125 C 134.695312 220.765625 135.292969 220.316406 136.445312 220.488281 C 140.847656 221.136719 145.285156 221.535156 149.738281 221.578125 C 161.207031 221.691406 172.019531 219.195312 181.957031 213.320312 C 183.605469 212.347656 185.042969 211.140625 186.289062 209.691406 C 188.003906 207.703125 190.003906 205.988281 191.75 204.023438 C 195.179688 200.175781 198 195.910156 200.636719 191.503906 C 201.742188 189.65625 201.753906 189.648438 203.917969 189.878906 C 205.859375 190.085938 207.773438 190.527344 209.675781 190.914062 C 214.761719 191.953125 219.898438 192.6875 224.984375 193.722656 C 231.492188 195.050781 238.046875 196.144531 244.65625 196.933594 C 249.074219 197.460938 253.449219 198.3125 257.816406 199.207031 C 262.6875 200.203125 267.410156 201.582031 271.933594 203.609375 C 278.691406 206.628906 284.5 210.878906 288.648438 217.121094 C 291.03125 220.710938 292.089844 224.769531 292.542969 229.015625 C 293.125 234.410156 292.675781 239.734375 291.519531 245.011719 C 291.089844 246.980469 290.558594 248.925781 290.074219 250.882812 Z M 190.171875 236.863281 C 190.558594 235.699219 190.410156 233.851562 189.980469 232.082031 C 189.371094 229.601562 187.941406 227.640625 185.464844 226.699219 C 183.734375 226.039062 181.886719 225.960938 180.058594 226.136719 C 178.714844 226.261719 177.445312 226.671875 176.429688 227.671875 C 173.40625 230.65625 172.222656 234.210938 173.328125 238.335938 C 175.085938 244.914062 182.96875 246.675781 187.269531 242.394531 C 188.640625 241.027344 189.484375 239.363281 190.171875 236.863281 Z M 261.179688 254.816406 C 262.164062 251.5 261.105469 248.679688 258.980469 246.1875 C 257.988281 245.019531 256.511719 244.441406 255.214844 243.667969 C 254.765625 243.398438 254.175781 243.359375 253.617188 243.355469 C 249.167969 243.316406 243.164062 248.046875 245.414062 254.265625 C 245.878906 255.546875 246.511719 256.75 247.402344 257.734375 C 248.921875 259.417969 250.675781 260.902344 253.078125 261.058594 C 257.335938 261.339844 260.117188 258.488281 261.179688 254.816406 Z M 225.40625 245.464844 C 225.585938 244.894531 225.71875 243.820312 225.695312 242.710938 C 225.636719 239.664062 223.496094 236.992188 220.59375 236.117188 C 218.730469 235.554688 216.964844 236 215.1875 236.296875 C 212.0625 236.816406 209.96875 239.550781 209.742188 241.964844 C 209.300781 246.734375 210.847656 249.171875 214.921875 251.257812 C 216.472656 252.050781 218.234375 252.378906 220.058594 251.761719 C 222.914062 250.789062 224.597656 248.84375 225.40625 245.464844 Z M 291.703125 56.804688 C 299.050781 58.632812 306.4375 60.320312 313.738281 62.316406 C 321.324219 64.394531 328.871094 66.652344 336.039062 69.964844 C 339.328125 71.488281 342.390625 73.363281 345.101562 75.773438 C 349.421875 79.613281 351.460938 84.636719 352.304688 90.210938 C 352.886719 94.035156 352.691406 97.886719 352.382812 101.71875 C 351.742188 109.710938 350.285156 117.570312 348.027344 125.253906 C 345.957031 132.292969 343.210938 139.066406 339.25 145.296875 C 334.890625 152.15625 328.890625 156.636719 320.917969 158.578125 C 311.625 160.839844 302.265625 161.539062 292.765625 160.460938 C 291.917969 160.363281 291.066406 160.25 290.214844 160.234375 C 287.09375 160.175781 284.007812 159.859375 281 158.964844 C 280.277344 158.75 279.773438 158.789062 279.390625 159.601562 C 277.664062 163.253906 275.246094 166.496094 273.148438 169.929688 C 271.460938 172.6875 269.789062 175.457031 268.1875 178.265625 C 266.957031 180.414062 265.351562 182.238281 263.582031 183.925781 C 262.152344 185.292969 260.699219 184.878906 260.214844 182.902344 C 259.585938 180.355469 259.125 177.769531 258.585938 175.203125 C 257.664062 170.84375 257.113281 166.414062 256.089844 162.070312 C 255.832031 160.976562 255.421875 160.523438 254.261719 160.25 C 247.488281 158.648438 240.632812 157.257812 234.023438 155.121094 C 226.257812 152.613281 218.640625 149.582031 211.867188 144.832031 C 209.902344 143.453125 208.160156 141.921875 206.753906 139.929688 C 202.515625 133.921875 198.800781 127.652344 196.074219 120.792969 C 193.941406 115.433594 193.5625 109.917969 193.992188 104.261719 C 194.601562 96.316406 196.125 88.535156 198.378906 80.917969 C 200.488281 73.777344 203.1875 66.839844 206.855469 60.324219 C 210.34375 54.125 215.683594 50.402344 222.425781 48.414062 C 228.019531 46.765625 233.71875 46.503906 239.46875 46.785156 C 244.777344 47.042969 250.007812 47.898438 255.257812 48.691406 C 267.601562 50.546875 279.617188 53.832031 291.703125 56.804688 Z M 302.613281 140.984375 C 302.613281 140.980469 302.613281 140.976562 302.613281 140.972656 C 303.386719 141.164062 304.15625 141.355469 304.925781 141.546875 C 309.550781 142.695312 314.167969 143.863281 318.796875 144.980469 C 320.875 145.480469 322.050781 144.726562 322.636719 142.679688 C 323.1875 140.734375 323.410156 138.742188 323.441406 136.734375 C 323.46875 134.988281 323.300781 134.664062 321.597656 134.394531 C 318.945312 133.980469 316.351562 133.242188 313.703125 132.882812 C 312.007812 132.652344 310.363281 132.179688 308.671875 132.003906 C 306.308594 131.757812 303.949219 131.429688 301.65625 130.863281 C 293.546875 128.855469 285.433594 126.859375 277.375 124.636719 C 267.558594 121.929688 257.660156 119.492188 247.675781 117.410156 C 237.945312 115.382812 228.359375 112.664062 218.609375 110.679688 C 218.191406 110.597656 217.78125 110.457031 217.359375 110.398438 C 216.941406 110.335938 216.515625 110.347656 216.09375 110.316406 C 215 110.242188 214.339844 110.855469 214.039062 111.792969 C 213.347656 113.933594 212.4375 116.003906 212.023438 118.234375 C 211.75 119.707031 212.148438 120.582031 213.570312 121.074219 C 214.429688 121.375 215.335938 121.648438 216.238281 121.710938 C 220.871094 122.035156 225.316406 123.417969 229.890625 124.082031 C 232.65625 124.484375 235.339844 125.34375 238.117188 125.804688 C 241.894531 126.433594 245.628906 127.378906 249.371094 128.21875 C 262.890625 131.242188 276.222656 135.058594 289.804688 137.832031 C 294.109375 138.710938 298.34375 139.921875 302.613281 140.984375 Z M 295.582031 82.234375 C 292.875 81.734375 288.789062 80.496094 284.574219 79.742188 C 279.363281 78.804688 274.253906 77.3125 269.035156 76.339844 C 265.386719 75.65625 261.832031 74.558594 258.148438 73.949219 C 254.191406 73.289062 250.289062 72.265625 246.355469 71.433594 C 240.808594 70.261719 235.359375 68.636719 229.746094 67.777344 C 228.0625 67.519531 226.378906 67.28125 224.707031 66.945312 C 223.261719 66.65625 222.476562 67.320312 222.054688 68.785156 C 221.636719 70.257812 221.492188 71.769531 221.277344 73.277344 C 220.980469 75.367188 220.941406 75.367188 222.945312 75.914062 C 226.417969 76.855469 229.976562 77.386719 233.480469 78.167969 C 236.160156 78.769531 238.871094 79.199219 241.566406 79.640625 C 245.714844 80.320312 249.816406 81.21875 253.902344 82.140625 C 259.308594 83.359375 264.703125 84.640625 270.003906 86.335938 C 274.050781 87.632812 278.296875 88.324219 282.449219 89.269531 C 290.121094 91.011719 297.820312 92.628906 305.46875 94.476562 C 308.902344 95.304688 312.347656 96.078125 315.8125 96.78125 C 321.179688 97.875 326.597656 98.71875 331.941406 99.929688 C 334.007812 100.398438 335.078125 99.285156 335.296875 97.402344 C 335.476562 95.839844 335.449219 94.246094 335.460938 92.667969 C 335.472656 91.191406 335.226562 90.855469 333.753906 90.566406 C 332.144531 90.257812 330.519531 89.921875 328.890625 89.855469 C 325.21875 89.699219 321.664062 88.820312 318.105469 88.097656 C 314.414062 87.347656 310.753906 86.398438 307.160156 85.175781 C 303.878906 84.054688 300.425781 83.4375 295.582031 82.234375 Z M 217.425781 91.984375 C 217.222656 92.808594 217.023438 93.515625 216.871094 94.234375 C 216.613281 95.464844 216.910156 96.046875 218.070312 96.523438 C 218.519531 96.710938 219.011719 96.777344 219.476562 96.925781 C 222.507812 97.902344 225.730469 97.964844 228.777344 98.84375 C 232.242188 99.839844 235.855469 100.109375 239.324219 101.070312 C 239.5 101.121094 239.683594 101.15625 239.867188 101.164062 C 243.714844 101.324219 247.410156 102.441406 251.203125 102.960938 C 253.789062 103.3125 256.296875 104.109375 258.894531 104.527344 C 262.675781 105.132812 266.398438 106.121094 270.144531 106.9375 C 284.988281 110.179688 299.554688 114.585938 314.476562 117.507812 C 316.160156 117.839844 317.636719 118.898438 319.355469 119 C 321.636719 119.132812 323.773438 119.878906 325.976562 120.328125 C 326.515625 120.4375 327.046875 120.613281 327.589844 120.664062 C 329.347656 120.832031 330.039062 120.347656 330.492188 118.625 C 330.972656 116.800781 331.375 114.960938 331.546875 113.070312 C 331.671875 111.6875 331.449219 111.183594 330.089844 110.808594 C 327.914062 110.207031 325.664062 109.96875 323.441406 109.703125 C 320.363281 109.335938 317.285156 108.984375 314.253906 108.339844 C 311.210938 107.691406 308.230469 106.691406 305.164062 106.210938 C 300.417969 105.472656 295.726562 104.441406 290.984375 103.667969 C 287.140625 103.042969 283.398438 101.910156 279.5625 101.160156 C 272.445312 99.769531 265.492188 97.644531 258.347656 96.289062 C 254.464844 95.554688 250.523438 95.039062 246.71875 93.890625 C 246.601562 93.855469 246.480469 93.828125 246.359375 93.820312 C 242.886719 93.542969 239.546875 92.550781 236.140625 91.925781 C 232.84375 91.320312 229.601562 90.390625 226.347656 89.574219 C 224.695312 89.160156 223.011719 88.871094 221.476562 88.039062 C 220.90625 87.730469 220.195312 87.617188 219.535156 87.546875 C 218.589844 87.445312 217.941406 87.957031 217.988281 88.875 C 218.042969 90.015625 217.558594 91.019531 217.425781 91.984375 Z M 217.425781 91.984375 " fill-opacity="1" fill-rule="nonzero"/></g></g></g><g clip-path="url(#86d5ab5bf9)"><g clip-path="url(#0a3ca02fd5)"><g clip-path="url(#29a5349a65)"><path fill="#24d6bd" d="M 103.460938 120.550781 C 108.800781 122.105469 113.128906 125.082031 116.113281 129.832031 C 117.703125 132.359375 119.539062 134.726562 120.96875 137.359375 C 121.65625 138.628906 121.78125 138.582031 122.789062 137.585938 C 125.390625 135.011719 128.015625 132.4375 131.25 130.664062 C 135.785156 128.175781 140.59375 126.976562 145.828125 127.648438 C 148.085938 127.9375 150.230469 128.410156 152.339844 129.28125 C 156.085938 130.832031 159.8125 136.160156 158.375 141.527344 C 157.242188 145.753906 154.824219 149.125 151.992188 152.242188 C 147.875 156.769531 142.933594 160.347656 137.941406 163.847656 C 134.699219 166.121094 131.328125 168.207031 128.066406 170.445312 C 124.941406 172.589844 121.710938 174.554688 118.425781 176.414062 C 114.476562 178.648438 114.496094 178.246094 112.136719 175.402344 C 106.34375 168.417969 99.902344 161.992188 94.347656 154.808594 C 91.101562 150.613281 88.097656 146.269531 86.058594 141.304688 C 84.648438 137.871094 83.886719 134.347656 84.800781 130.800781 C 85.890625 126.582031 88.386719 123.175781 92.546875 121.398438 C 96.050781 119.898438 99.699219 119.453125 103.460938 120.550781 Z M 189.980469 232.082031 C 189.371094 229.601562 187.941406 227.640625 185.464844 226.699219 C 183.734375 226.039062 181.886719 225.960938 180.058594 226.136719 C 178.714844 226.261719 177.445312 226.671875 176.429688 227.671875 C 173.40625 230.65625 172.222656 234.210938 173.328125 238.335938 C 175.085938 244.914062 182.96875 246.675781 187.269531 242.394531 C 188.640625 241.027344 189.484375 239.363281 190.171875 236.863281 C 190.558594 235.699219 190.410156 233.851562 189.980469 232.082031 Z M 258.980469 246.1875 C 257.988281 245.019531 256.511719 244.441406 255.214844 243.667969 C 254.765625 243.398438 254.175781 243.359375 253.617188 243.355469 C 249.167969 243.316406 243.164062 248.046875 245.414062 254.265625 C 245.878906 255.546875 246.511719 256.75 247.402344 257.734375 C 248.921875 259.417969 250.675781 260.902344 253.078125 261.058594 C 257.335938 261.339844 260.117188 258.488281 261.179688 254.816406 C 262.164062 251.5 261.105469 248.679688 258.980469 246.1875 Z M 225.695312 242.710938 C 225.636719 239.664062 223.496094 236.992188 220.59375 236.117188 C 218.730469 235.554688 216.964844 236 215.1875 236.296875 C 212.0625 236.816406 209.96875 239.550781 209.742188 241.964844 C 209.300781 246.734375 210.847656 249.171875 214.921875 251.257812 C 216.472656 252.050781 218.234375 252.378906 220.058594 251.761719 C 222.914062 250.789062 224.597656 248.84375 225.40625 245.464844 C 225.585938 244.894531 225.71875 243.820312 225.695312 242.710938 Z M 302.613281 140.972656 C 303.386719 141.164062 304.15625 141.355469 304.925781 141.546875 C 309.550781 142.695312 314.167969 143.863281 318.796875 144.980469 C 320.875 145.480469 322.050781 144.726562 322.636719 142.679688 C 323.1875 140.734375 323.410156 138.742188 323.441406 136.734375 C 323.46875 134.988281 323.300781 134.664062 321.597656 134.394531 C 318.945312 133.980469 316.351562 133.242188 313.703125 132.882812 C 312.007812 132.652344 310.363281 132.179688 308.671875 132.003906 C 306.308594 131.757812 303.949219 131.429688 301.65625 130.863281 C 293.546875 128.855469 285.433594 126.859375 277.375 124.636719 C 267.558594 121.929688 257.660156 119.492188 247.675781 117.410156 C 237.945312 115.382812 228.359375 112.664062 218.609375 110.679688 C 218.191406 110.597656 217.78125 110.457031 217.359375 110.398438 C 216.941406 110.335938 216.515625 110.347656 216.09375 110.316406 C 215 110.242188 214.339844 110.855469 214.039062 111.792969 C 213.347656 113.933594 212.4375 116.003906 212.023438 118.234375 C 211.75 119.707031 212.148438 120.582031 213.570312 121.074219 C 214.429688 121.375 215.335938 121.648438 216.238281 121.710938 C 220.871094 122.035156 225.316406 123.417969 229.890625 124.082031 C 232.65625 124.484375 235.339844 125.34375 238.117188 125.804688 C 241.894531 126.433594 245.628906 127.378906 249.371094 128.21875 C 262.890625 131.242188 276.222656 135.058594 289.804688 137.832031 C 294.109375 138.710938 298.34375 139.921875 302.613281 140.984375 C 302.613281 140.980469 302.613281 140.976562 302.613281 140.972656 Z M 284.574219 79.742188 C 279.363281 78.804688 274.253906 77.3125 269.035156 76.339844 C 265.386719 75.65625 261.832031 74.558594 258.148438 73.949219 C 254.191406 73.289062 250.289062 72.265625 246.355469 71.433594 C 240.808594 70.261719 235.359375 68.636719 229.746094 67.777344 C 228.0625 67.519531 226.378906 67.28125 224.707031 66.945312 C 223.261719 66.65625 222.476562 67.320312 222.054688 68.785156 C 221.636719 70.257812 221.492188 71.769531 221.277344 73.277344 C 220.980469 75.367188 220.941406 75.367188 222.945312 75.914062 C 226.417969 76.855469 229.976562 77.386719 233.480469 78.167969 C 236.160156 78.769531 238.871094 79.199219 241.566406 79.640625 C 245.714844 80.320312 249.816406 81.21875 253.902344 82.140625 C 259.308594 83.359375 264.703125 84.640625 270.003906 86.335938 C 274.050781 87.632812 278.296875 88.324219 282.449219 89.269531 C 290.121094 91.011719 297.820312 92.628906 305.46875 94.476562 C 308.902344 95.304688 312.347656 96.078125 315.8125 96.78125 C 321.179688 97.875 326.597656 98.71875 331.941406 99.929688 C 334.007812 100.398438 335.078125 99.285156 335.296875 97.402344 C 335.476562 95.839844 335.449219 94.246094 335.460938 92.667969 C 335.472656 91.191406 335.226562 90.855469 333.753906 90.566406 C 332.144531 90.257812 330.519531 89.921875 328.890625 89.855469 C 325.21875 89.699219 321.664062 88.820312 318.105469 88.097656 C 314.414062 87.347656 310.753906 86.398438 307.160156 85.175781 C 303.878906 84.054688 300.425781 83.4375 295.582031 82.234375 C 292.875 81.734375 288.789062 80.496094 284.574219 79.742188 Z M 216.871094 94.234375 C 216.613281 95.464844 216.910156 96.046875 218.070312 96.523438 C 218.519531 96.710938 219.011719 96.777344 219.476562 96.925781 C 222.507812 97.902344 225.730469 97.964844 228.777344 98.84375 C 232.242188 99.839844 235.855469 100.109375 239.324219 101.070312 C 239.5 101.121094 239.683594 101.15625 239.867188 101.164062 C 243.714844 101.324219 247.410156 102.441406 251.203125 102.960938 C 253.789062 103.3125 256.296875 104.109375 258.894531 104.527344 C 262.675781 105.132812 266.398438 106.121094 270.144531 106.9375 C 284.988281 110.179688 299.554688 114.585938 314.476562 117.507812 C 316.160156 117.839844 317.636719 118.898438 319.355469 119 C 321.636719 119.132812 323.773438 119.878906 325.976562 120.328125 C 326.515625 120.4375 327.046875 120.613281 327.589844 120.664062 C 329.347656 120.832031 330.039062 120.347656 330.492188 118.625 C 330.972656 116.800781 331.375 114.960938 331.546875 113.070312 C 331.671875 111.6875 331.449219 111.183594 330.089844 110.808594 C 327.914062 110.207031 325.664062 109.96875 323.441406 109.703125 C 320.363281 109.335938 317.285156 108.984375 314.253906 108.339844 C 311.210938 107.691406 308.230469 106.691406 305.164062 106.210938 C 300.417969 105.472656 295.726562 104.441406 290.984375 103.667969 C 287.140625 103.042969 283.398438 101.910156 279.5625 101.160156 C 272.445312 99.769531 265.492188 97.644531 258.347656 96.289062 C 254.464844 95.554688 250.523438 95.039062 246.71875 93.890625 C 246.601562 93.855469 246.480469 93.828125 246.359375 93.820312 C 242.886719 93.542969 239.546875 92.550781 236.140625 91.925781 C 232.84375 91.320312 229.601562 90.390625 226.347656 89.574219 C 224.695312 89.160156 223.011719 88.871094 221.476562 88.039062 C 220.90625 87.730469 220.195312 87.617188 219.535156 87.546875 C 218.589844 87.445312 217.941406 87.957031 217.988281 88.875 C 218.042969 90.015625 217.558594 91.019531 217.425781 91.984375 C 217.222656 92.808594 217.023438 93.515625 216.871094 94.234375 Z M 216.871094 94.234375 " fill-opacity="1" fill-rule="nonzero"/></g></g></g></g></g></g></svg>