<svg xmlns="http://www.w3.org/2000/svg" xmlns:xlink="http://www.w3.org/1999/xlink" width="1080" zoomAndPan="magnify" viewBox="0 0 810 809.999993" height="1080" preserveAspectRatio="xMidYMid meet" version="1.0"><defs><clipPath id="22adc47928"><path d="M 418 11 L 621 11 L 621 239 L 418 239 Z M 418 11 " clip-rule="nonzero"/></clipPath><clipPath id="6d4ae93448"><path d="M 424.402344 0 L 640.519531 27.261719 L 613.261719 243.378906 L 397.140625 216.121094 Z M 424.402344 0 " clip-rule="nonzero"/></clipPath><clipPath id="a6e8a624e6"><path d="M 424.402344 0 L 640.519531 27.261719 L 613.261719 243.378906 L 397.140625 216.121094 Z M 424.402344 0 " clip-rule="nonzero"/></clipPath><clipPath id="7d104c7ec2"><path d="M 522 104 L 618 104 L 618 239 L 522 239 Z M 522 104 " clip-rule="nonzero"/></clipPath><clipPath id="e0ab0317fe"><path d="M 424.402344 0 L 640.519531 27.261719 L 613.261719 243.378906 L 397.140625 216.121094 Z M 424.402344 0 " clip-rule="nonzero"/></clipPath><clipPath id="1e1ded81eb"><path d="M 424.402344 0 L 640.519531 27.261719 L 613.261719 243.378906 L 397.140625 216.121094 Z M 424.402344 0 " clip-rule="nonzero"/></clipPath><clipPath id="bbbfdc37d9"><path d="M 274 314 L 347 314 L 347 491 L 274 491 Z M 274 314 " clip-rule="nonzero"/></clipPath><clipPath id="3ebf67c66e"><path d="M 169.355469 314.199219 L 356.785156 298.015625 L 377.652344 539.703125 L 190.222656 555.886719 Z M 169.355469 314.199219 " clip-rule="nonzero"/></clipPath><clipPath id="9b4eee8715"><path d="M 169.355469 314.199219 L 356.785156 298.015625 L 377.652344 539.703125 L 190.222656 555.886719 Z M 169.355469 314.199219 " clip-rule="nonzero"/></clipPath><clipPath id="7c91c7ecd0"><path d="M 185 372 L 354 372 L 354 546 L 185 546 Z M 185 372 " clip-rule="nonzero"/></clipPath><clipPath id="11904a16fc"><path d="M 169.355469 314.199219 L 356.785156 298.015625 L 377.652344 539.703125 L 190.222656 555.886719 Z M 169.355469 314.199219 " clip-rule="nonzero"/></clipPath><clipPath id="f54061d04f"><path d="M 169.355469 314.199219 L 356.785156 298.015625 L 377.652344 539.703125 L 190.222656 555.886719 Z M 169.355469 314.199219 " clip-rule="nonzero"/></clipPath><clipPath id="5dad479a99"><path d="M 301 369 L 346 369 L 346 441 L 301 441 Z M 301 369 " clip-rule="nonzero"/></clipPath><clipPath id="2e2c6475bf"><path d="M 169.355469 314.199219 L 356.785156 298.015625 L 377.652344 539.703125 L 190.222656 555.886719 Z M 169.355469 314.199219 " clip-rule="nonzero"/></clipPath><clipPath id="8aba5d0c67"><path d="M 169.355469 314.199219 L 356.785156 298.015625 L 377.652344 539.703125 L 190.222656 555.886719 Z M 169.355469 314.199219 " clip-rule="nonzero"/></clipPath><clipPath id="e0f8b9de09"><path d="M 289 306 L 365 306 L 365 530 L 289 530 Z M 289 306 " clip-rule="nonzero"/></clipPath><clipPath id="29f8b33aab"><path d="M 169.355469 314.199219 L 356.785156 298.015625 L 377.652344 539.703125 L 190.222656 555.886719 Z M 169.355469 314.199219 " clip-rule="nonzero"/></clipPath><clipPath id="ab22cd7f80"><path d="M 169.355469 314.199219 L 356.785156 298.015625 L 377.652344 539.703125 L 190.222656 555.886719 Z M 169.355469 314.199219 " clip-rule="nonzero"/></clipPath><clipPath id="642b390844"><path d="M 315 622 L 501 622 L 501 788 L 315 788 Z M 315 622 " clip-rule="nonzero"/></clipPath><clipPath id="b5f1a003af"><path d="M 298.597656 616.902344 L 497.703125 587.054688 L 526.570312 779.632812 L 327.464844 809.476562 Z M 298.597656 616.902344 " clip-rule="nonzero"/></clipPath><clipPath id="19026d2f5a"><path d="M 298.597656 616.902344 L 497.703125 587.054688 L 526.570312 779.632812 L 327.464844 809.476562 Z M 298.597656 616.902344 " clip-rule="nonzero"/></clipPath><clipPath id="d29406eaad"><path d="M 324 594 L 503 594 L 503 804 L 324 804 Z M 324 594 " clip-rule="nonzero"/></clipPath><clipPath id="09cc40dd5d"><path d="M 298.597656 616.902344 L 497.703125 587.054688 L 526.570312 779.632812 L 327.464844 809.476562 Z M 298.597656 616.902344 " clip-rule="nonzero"/></clipPath><clipPath id="6c38eec2e9"><path d="M 298.597656 616.902344 L 497.703125 587.054688 L 526.570312 779.632812 L 327.464844 809.476562 Z M 298.597656 616.902344 " clip-rule="nonzero"/></clipPath><clipPath id="930d71b6c6"><path d="M 332 612 L 517 612 L 517 781 L 332 781 Z M 332 612 " clip-rule="nonzero"/></clipPath><clipPath id="8bb538dd3e"><path d="M 298.597656 616.902344 L 497.703125 587.054688 L 526.570312 779.632812 L 327.464844 809.476562 Z M 298.597656 616.902344 " clip-rule="nonzero"/></clipPath><clipPath id="f58faf3a5a"><path d="M 298.597656 616.902344 L 497.703125 587.054688 L 526.570312 779.632812 L 327.464844 809.476562 Z M 298.597656 616.902344 " clip-rule="nonzero"/></clipPath><clipPath id="76611d8e96"><path d="M 480.257812 419.101562 L 572 419.101562 L 572 499.964844 L 480.257812 499.964844 Z M 480.257812 419.101562 " clip-rule="nonzero"/></clipPath><clipPath id="5b7ca29340"><path d="M 201.0625 122 L 298.425781 122 L 298.425781 215.824219 L 201.0625 215.824219 Z M 201.0625 122 " clip-rule="nonzero"/></clipPath></defs><g clip-path="url(#22adc47928)"><g clip-path="url(#6d4ae93448)"><g clip-path="url(#a6e8a624e6)"><path fill="#bfe4ff" d="M 620.78125 134.089844 C 621.160156 131.066406 620.796875 128.140625 619.917969 125.414062 C 615.140625 98.414062 577.191406 95.554688 523.71875 87.523438 C 514.777344 86.183594 521.242188 76.242188 527.320312 53.394531 C 531.277344 38.535156 524.457031 14.089844 508.070312 12.023438 C 481.054688 8.617188 504.355469 33.207031 473.824219 82.890625 C 457.507812 109.4375 430.96875 90.066406 427.402344 118.351562 L 419.28125 182.730469 C 417.890625 193.738281 417.636719 204.457031 432.902344 208.152344 C 447.699219 211.734375 442.972656 222.003906 464.625 224.738281 L 573.003906 238.40625 C 584.042969 239.796875 594.152344 231.945312 595.546875 220.90625 C 596.125 216.328125 595.046875 211.960938 592.882812 208.257812 C 599.441406 205.601562 604.460938 199.65625 605.410156 192.148438 C 605.984375 187.582031 604.914062 183.214844 602.753906 179.519531 C 609.332031 176.871094 614.367188 170.921875 615.3125 163.402344 C 616.003906 157.941406 614.417969 152.714844 611.3125 148.644531 C 616.320312 145.546875 619.988281 140.371094 620.78125 134.089844 Z M 620.78125 134.089844 " fill-opacity="1" fill-rule="nonzero"/></g></g></g><g clip-path="url(#7d104c7ec2)"><g clip-path="url(#e0ab0317fe)"><g clip-path="url(#1e1ded81eb)"><path fill="#35a1f4" d="M 546.566406 145.066406 L 598.242188 151.582031 C 605.269531 152.46875 612.339844 149.542969 616.695312 143.945312 C 618.484375 141.640625 618.070312 138.3125 615.757812 136.511719 C 613.453125 134.714844 610.121094 135.140625 608.324219 137.449219 C 606.261719 140.109375 602.894531 141.492188 599.5625 141.070312 L 546.648438 134.398438 C 541.40625 133.734375 537.679688 128.933594 538.339844 123.691406 C 539 118.445312 543.804688 114.71875 549.046875 115.382812 L 584.40625 119.839844 C 587.304688 120.207031 589.957031 118.148438 590.324219 115.25 C 590.6875 112.347656 588.632812 109.695312 585.730469 109.332031 L 550.367188 104.871094 C 539.328125 103.476562 529.214844 111.324219 527.824219 122.363281 C 527.046875 128.519531 529.210938 134.328125 533.132812 138.558594 C 528.980469 141.722656 526.042969 146.480469 525.339844 152.054688 C 524.5625 158.226562 526.746094 164.054688 530.691406 168.28125 C 526.5625 171.445312 523.652344 176.1875 522.949219 181.746094 C 522.101562 188.476562 524.710938 194.832031 529.359375 199.109375 C 525.765625 202.25 523.214844 206.609375 522.570312 211.703125 C 521.179688 222.742188 529.027344 232.851562 540.066406 234.246094 L 573.003906 238.398438 C 580.03125 239.285156 587.105469 236.363281 591.457031 230.769531 C 593.257812 228.464844 592.839844 225.136719 590.535156 223.335938 C 588.222656 221.550781 584.894531 221.953125 583.101562 224.261719 C 581.027344 226.921875 577.660156 228.308594 574.328125 227.890625 L 541.390625 223.734375 C 536.148438 223.074219 532.421875 218.269531 533.082031 213.027344 C 533.742188 207.785156 538.546875 204.058594 543.789062 204.71875 L 582.863281 209.648438 C 589.890625 210.535156 596.972656 207.609375 601.320312 202.011719 C 603.121094 199.699219 602.703125 196.371094 600.398438 194.578125 C 598.070312 192.753906 594.75 193.195312 592.964844 195.503906 C 590.859375 198.207031 587.578125 199.5625 584.191406 199.136719 L 541.769531 193.785156 C 536.527344 193.125 532.800781 188.316406 533.460938 183.074219 C 534.121094 177.832031 538.925781 174.105469 544.167969 174.765625 L 592.765625 180.894531 C 599.792969 181.78125 606.867188 178.859375 611.21875 173.265625 C 613.019531 170.957031 612.601562 167.628906 610.296875 165.832031 C 607.980469 164.039062 604.65625 164.449219 602.863281 166.753906 C 600.761719 169.457031 597.476562 170.8125 594.089844 170.382812 L 544.167969 164.085938 C 538.921875 163.425781 535.195312 158.625 535.859375 153.378906 C 536.519531 148.136719 541.316406 144.402344 546.566406 145.066406 Z M 546.566406 145.066406 " fill-opacity="1" fill-rule="nonzero"/></g></g></g><g clip-path="url(#bbbfdc37d9)"><g clip-path="url(#3ebf67c66e)"><g clip-path="url(#9b4eee8715)"><path fill="#8e77f8" d="M 330.9375 490.816406 C 323.113281 491.492188 315.683594 486.503906 313.542969 478.660156 L 274.589844 335.667969 C 272.183594 326.84375 277.390625 317.730469 286.21875 315.324219 C 295.042969 312.894531 304.15625 318.128906 306.558594 326.953125 L 345.515625 469.945312 C 347.921875 478.773438 342.710938 487.882812 333.878906 490.289062 C 332.90625 490.558594 331.921875 490.730469 330.9375 490.816406 Z M 330.9375 490.816406 " fill-opacity="1" fill-rule="nonzero"/></g></g></g><g clip-path="url(#7c91c7ecd0)"><g clip-path="url(#11904a16fc)"><g clip-path="url(#f54061d04f)"><path fill="#d2d5ff" d="M 351.113281 464.226562 C 352.269531 459.171875 351.066406 453.648438 347.347656 449.484375 C 346.914062 449.003906 344.109375 445.871094 339.867188 441.214844 C 339.871094 440.871094 339.917969 440.464844 339.890625 440.148438 C 339.628906 437.125 325.761719 423.917969 312.578125 412 C 300.980469 399.929688 288.792969 387.769531 279.960938 380.339844 L 270.824219 372.65625 L 260.636719 378.898438 C 224.511719 401.035156 205.738281 409.28125 205.578125 409.355469 C 197.175781 412.988281 193.308594 422.734375 196.941406 431.136719 C 200.574219 439.539062 210.316406 443.386719 218.722656 439.78125 C 219.472656 439.457031 235.8125 432.324219 267.347656 413.554688 C 275.273438 421.054688 284.644531 430.65625 293.398438 439.886719 L 298.714844 447.238281 C 299.992188 449.003906 300.042969 451.371094 298.824219 453.1875 L 278.132812 484.191406 C 277.570312 485.03125 276.78125 485.6875 275.867188 486.085938 L 259.632812 493.101562 C 258.601562 493.546875 257.445312 493.648438 256.351562 493.382812 L 224.21875 485.671875 C 218.570312 472.3125 218.363281 458.890625 218.363281 458.742188 C 218.371094 449.589844 210.953125 442.167969 201.804688 442.164062 C 192.671875 442.101562 185.234375 449.5625 185.226562 458.71875 C 185.226562 460.453125 185.519531 501.429688 213.140625 526.785156 C 229.09375 541.425781 250.179688 547.734375 275.816406 545.523438 C 280.171875 545.144531 284.292969 544.851562 288.179688 544.574219 C 291.679688 544.324219 295.070312 544.085938 298.339844 543.804688 C 316.589844 542.226562 331.25 539.425781 341.726562 527.144531 C 351.6875 515.46875 354.878906 498.101562 352.371094 469.066406 C 352.214844 467.332031 351.738281 465.742188 351.113281 464.226562 Z M 351.113281 464.226562 " fill-opacity="1" fill-rule="nonzero"/></g></g></g><g clip-path="url(#5dad479a99)"><g clip-path="url(#2e2c6475bf)"><g clip-path="url(#8aba5d0c67)"><path fill="#8e77f8" d="M 339.894531 440.148438 C 337.359375 440.367188 334.824219 439.117188 333.515625 436.75 L 301.972656 379.597656 C 300.203125 376.390625 301.367188 372.359375 304.574219 370.59375 C 307.785156 368.8125 311.8125 369.988281 313.578125 373.1875 L 345.121094 430.335938 C 346.890625 433.542969 345.726562 437.578125 342.519531 439.34375 C 341.683594 439.816406 340.792969 440.070312 339.894531 440.148438 Z M 339.894531 440.148438 " fill-opacity="1" fill-rule="nonzero"/></g></g></g><g clip-path="url(#e0f8b9de09)"><g clip-path="url(#29f8b33aab)"><g clip-path="url(#ab22cd7f80)"><path fill="#d2d5ff" d="M 332.765625 529.773438 L 319.941406 499.214844 C 319.941406 499.214844 319.511719 499.328125 318.824219 499.75 C 318.929688 499.683594 330.28125 492.144531 331.652344 458.710938 C 333.304688 418.152344 321.070312 395.757812 320.945312 395.542969 L 320.199219 394.070312 L 291.324219 329.347656 C 287.597656 320.988281 291.347656 311.191406 299.707031 307.460938 C 308.054688 303.742188 317.863281 307.492188 321.59375 315.84375 L 350.207031 379.984375 C 353.203125 385.628906 366.660156 413.722656 364.757812 460.0625 C 362.53125 514.558594 337.714844 527.699219 332.765625 529.773438 Z M 332.765625 529.773438 " fill-opacity="1" fill-rule="nonzero"/></g></g></g><g clip-path="url(#642b390844)"><g clip-path="url(#b5f1a003af)"><g clip-path="url(#19026d2f5a)"><path fill="#ffb001" d="M 495.28125 721.488281 C 490.742188 716.628906 491.648438 708.488281 489.425781 699.980469 C 486.355469 686.015625 478.246094 673.257812 464.851562 664.089844 L 419.226562 632.859375 C 419.226562 632.859375 410.234375 626.699219 404.070312 635.695312 C 397.914062 644.683594 406.910156 650.84375 406.910156 650.84375 L 426.1875 664.046875 L 442.894531 675.480469 C 442.894531 675.480469 439.8125 679.980469 421.320312 667.320312 L 358.863281 624.550781 C 358.863281 624.550781 349.859375 618.398438 343.703125 627.390625 C 337.546875 636.382812 346.539062 642.542969 346.539062 642.542969 L 405.597656 682.984375 C 405.46875 682.894531 402.234375 687.285156 402.152344 687.230469 L 338.964844 643.960938 C 338.964844 643.960938 329.96875 637.804688 323.808594 646.800781 C 317.648438 655.796875 326.644531 661.949219 326.644531 661.949219 L 389.839844 705.226562 C 389.914062 705.28125 386.949219 709.851562 387.070312 709.9375 L 332.558594 672.601562 C 332.558594 672.601562 323.5625 666.441406 317.402344 675.4375 C 311.242188 684.433594 320.238281 690.59375 320.238281 690.59375 L 378.195312 730.273438 C 378.730469 730.636719 376.246094 735.546875 376.910156 736 L 335.148438 707.402344 C 335.148438 707.402344 326.152344 701.246094 319.992188 710.246094 C 313.832031 719.242188 322.828125 725.402344 322.828125 725.402344 L 390.949219 772.019531 C 402.320312 779.808594 413.273438 782.972656 425.890625 782.839844 C 428.457031 782.8125 431.675781 782.332031 433.019531 782.296875 C 437.265625 782.199219 441.148438 783.132812 446.492188 785.402344 C 453.375 788.316406 463.070312 788.511719 467.632812 781.886719 L 483.1875 759.292969 L 497.550781 738.425781 C 502.109375 731.8125 500.386719 726.945312 495.28125 721.488281 Z M 495.28125 721.488281 " fill-opacity="1" fill-rule="nonzero"/></g></g></g><g clip-path="url(#d29406eaad)"><g clip-path="url(#09cc40dd5d)"><g clip-path="url(#6c38eec2e9)"><path fill="#ffffff" d="M 341.105469 803.160156 C 339.730469 803.367188 338.277344 803.046875 337.078125 802.160156 C 334.664062 800.375 334.15625 796.984375 335.941406 794.574219 L 352.132812 772.683594 C 353.914062 770.273438 357.304688 769.765625 359.714844 771.546875 C 362.128906 773.332031 362.636719 776.71875 360.851562 779.132812 L 344.660156 801.027344 C 343.773438 802.230469 342.476562 802.957031 341.105469 803.160156 Z M 378.027344 802.683594 C 377.441406 802.769531 376.828125 802.765625 376.207031 802.648438 C 373.265625 802.09375 371.332031 799.253906 371.894531 796.308594 L 374.875 780.65625 C 375.429688 777.714844 378.273438 775.785156 381.214844 776.335938 C 384.15625 776.898438 386.089844 779.738281 385.523438 782.679688 L 382.546875 798.332031 C 382.105469 800.65625 380.242188 802.351562 378.027344 802.683594 Z M 330.742188 767.726562 C 328.53125 768.054688 326.253906 766.988281 325.148438 764.90625 C 323.742188 762.257812 324.746094 758.976562 327.394531 757.570312 L 340.066406 750.839844 C 342.726562 749.453125 345.996094 750.449219 347.402344 753.085938 C 348.808594 755.734375 347.800781 759.015625 345.15625 760.421875 L 332.480469 767.152344 C 331.917969 767.449219 331.332031 767.636719 330.742188 767.726562 Z M 471.25 627.292969 C 469.878906 627.5 468.425781 627.179688 467.222656 626.289062 C 464.8125 624.507812 464.304688 621.113281 466.085938 618.699219 L 482.285156 596.804688 C 484.066406 594.398438 487.457031 593.890625 489.867188 595.667969 C 492.277344 597.445312 492.789062 600.84375 491.003906 603.257812 L 474.808594 625.152344 C 473.917969 626.359375 472.625 627.085938 471.25 627.292969 Z M 447.554688 621.539062 C 446.96875 621.625 446.351562 621.613281 445.738281 621.496094 C 442.796875 620.941406 440.863281 618.105469 441.421875 615.160156 L 444.394531 599.503906 C 444.957031 596.5625 447.785156 594.632812 450.734375 595.1875 C 453.671875 595.746094 455.605469 598.582031 455.050781 601.527344 L 452.078125 617.179688 C 451.636719 619.511719 449.769531 621.207031 447.554688 621.539062 Z M 485.144531 647.570312 C 482.933594 647.898438 480.65625 646.832031 479.550781 644.75 C 478.144531 642.101562 479.152344 638.820312 481.796875 637.414062 L 494.464844 630.683594 C 497.113281 629.273438 500.394531 630.289062 501.796875 632.929688 C 503.203125 635.578125 502.191406 638.859375 499.550781 640.265625 L 486.882812 646.996094 C 486.320312 647.292969 485.734375 647.480469 485.144531 647.570312 Z M 485.144531 647.570312 " fill-opacity="1" fill-rule="nonzero"/></g></g></g><g clip-path="url(#930d71b6c6)"><g clip-path="url(#8bb538dd3e)"><g clip-path="url(#f58faf3a5a)"><path fill="#ffdc5d" d="M 511.421875 716.1875 C 507.046875 711.183594 508.226562 703.074219 506.292969 694.496094 C 503.691406 680.441406 496.019531 667.414062 482.941406 657.796875 L 438.394531 625.050781 C 438.394531 625.050781 429.617188 618.59375 423.152344 627.378906 C 416.699219 636.15625 425.480469 642.613281 425.480469 642.613281 L 444.304688 656.460938 L 460.613281 668.449219 C 460.613281 668.449219 457.375 672.839844 439.324219 659.5625 C 421.257812 646.285156 378.34375 614.714844 378.34375 614.714844 C 378.34375 614.714844 369.558594 608.261719 363.101562 617.042969 C 356.640625 625.820312 365.421875 632.273438 365.421875 632.273438 L 423.085938 674.6875 C 422.964844 674.597656 419.578125 678.871094 419.5 678.8125 L 357.804688 633.4375 C 357.804688 633.4375 349.019531 626.980469 342.558594 635.761719 C 336.105469 644.542969 344.882812 651 344.882812 651 L 406.585938 696.382812 C 406.660156 696.4375 403.535156 700.902344 403.65625 700.996094 L 350.433594 661.847656 C 350.433594 661.847656 341.652344 655.394531 335.191406 664.175781 C 328.734375 672.960938 337.515625 679.421875 337.515625 679.421875 L 394.101562 721.035156 C 394.621094 721.414062 391.976562 726.238281 392.625 726.71875 L 351.847656 696.730469 C 351.847656 696.730469 343.066406 690.273438 336.605469 699.058594 C 330.144531 707.839844 338.929688 714.300781 338.929688 714.300781 L 405.429688 763.1875 C 416.535156 771.355469 427.375 774.878906 439.988281 775.179688 C 442.558594 775.238281 445.792969 774.863281 447.132812 774.875 C 451.378906 774.917969 455.222656 775.980469 460.496094 778.433594 C 467.277344 781.578125 476.960938 782.09375 481.746094 775.632812 L 498.054688 753.574219 L 513.109375 733.210938 C 517.894531 726.734375 516.339844 721.8125 511.421875 716.1875 Z M 511.421875 716.1875 " fill-opacity="1" fill-rule="nonzero"/></g></g></g><g clip-path="url(#76611d8e96)"><path fill="#f4592f" d="M 571.320312 443.988281 C 571.320312 430.195312 560.136719 419.011719 546.34375 419.011719 C 537.972656 419.011719 530.585938 423.144531 526.050781 429.464844 C 521.519531 423.144531 514.128906 419.011719 505.757812 419.011719 C 491.964844 419.011719 480.78125 430.191406 480.78125 443.988281 C 480.78125 445.945312 481.03125 447.835938 481.457031 449.664062 C 484.921875 471.210938 508.878906 493.941406 526.050781 500.183594 C 543.21875 493.941406 567.179688 471.210938 570.640625 449.664062 C 571.070312 447.839844 571.320312 445.945312 571.320312 443.988281 Z M 571.320312 443.988281 " fill-opacity="1" fill-rule="nonzero"/></g><g clip-path="url(#5b7ca29340)"><path fill="#ffb001" d="M 276.367188 215.003906 C 275.21875 215.003906 274.078125 214.652344 273.09375 213.949219 L 249.964844 197.363281 L 226.835938 213.949219 C 224.863281 215.359375 222.222656 215.359375 220.261719 213.925781 C 218.304688 212.507812 217.476562 209.988281 218.210938 207.6875 L 226.839844 179.847656 L 203.917969 163.695312 C 201.96875 162.261719 201.160156 159.734375 201.902344 157.433594 C 202.65625 155.136719 204.792969 153.574219 207.210938 153.558594 L 235.597656 153.515625 L 244.636719 126.367188 C 245.398438 124.066406 247.542969 122.519531 249.964844 122.519531 C 252.382812 122.519531 254.53125 124.070312 255.292969 126.367188 L 264.179688 153.515625 L 292.714844 153.558594 C 295.136719 153.574219 297.277344 155.136719 298.019531 157.433594 C 298.769531 159.734375 297.957031 162.261719 296.007812 163.695312 L 273.085938 179.847656 L 281.714844 207.6875 C 282.453125 209.988281 281.621094 212.507812 279.664062 213.925781 C 278.679688 214.648438 277.523438 215.003906 276.367188 215.003906 Z M 276.367188 215.003906 " fill-opacity="1" fill-rule="nonzero"/></g></svg>