<svg xmlns="http://www.w3.org/2000/svg" xmlns:xlink="http://www.w3.org/1999/xlink" width="1080" zoomAndPan="magnify" viewBox="0 0 810 809.999993" height="1080" preserveAspectRatio="xMidYMid meet" version="1.0"><path fill="#fdf1e9" d="M 786.175781 405 C 786.175781 411.238281 786.023438 417.472656 785.71875 423.703125 C 785.410156 429.933594 784.953125 436.152344 784.339844 442.363281 C 783.730469 448.570312 782.964844 454.757812 782.050781 460.929688 C 781.136719 467.101562 780.070312 473.246094 778.851562 479.363281 C 777.636719 485.480469 776.269531 491.566406 774.753906 497.617188 C 773.238281 503.667969 771.574219 509.679688 769.761719 515.648438 C 767.953125 521.621094 765.996094 527.539062 763.894531 533.414062 C 761.792969 539.289062 759.546875 545.105469 757.160156 550.871094 C 754.773438 556.632812 752.246094 562.335938 749.578125 567.972656 C 746.914062 573.613281 744.109375 579.183594 741.167969 584.683594 C 738.226562 590.1875 735.152344 595.613281 731.945312 600.964844 C 728.738281 606.316406 725.402344 611.582031 721.9375 616.769531 C 718.472656 621.957031 714.878906 627.054688 711.164062 632.066406 C 707.449219 637.078125 703.609375 641.992188 699.652344 646.816406 C 695.695312 651.636719 691.621094 656.359375 687.433594 660.980469 C 683.242188 665.605469 678.945312 670.121094 674.53125 674.53125 C 670.121094 678.945312 665.605469 683.242188 660.980469 687.433594 C 656.359375 691.621094 651.636719 695.695312 646.816406 699.652344 C 641.992188 703.609375 637.078125 707.449219 632.066406 711.164062 C 627.054688 714.878906 621.957031 718.472656 616.769531 721.9375 C 611.582031 725.402344 606.316406 728.738281 600.964844 731.945312 C 595.613281 735.152344 590.1875 738.226562 584.683594 741.167969 C 579.183594 744.109375 573.613281 746.914062 567.972656 749.578125 C 562.335938 752.246094 556.632812 754.773438 550.871094 757.160156 C 545.105469 759.546875 539.289062 761.792969 533.414062 763.894531 C 527.539062 765.996094 521.621094 767.953125 515.648438 769.761719 C 509.679688 771.574219 503.667969 773.238281 497.617188 774.753906 C 491.566406 776.269531 485.480469 777.636719 479.363281 778.851562 C 473.246094 780.070312 467.101562 781.136719 460.929688 782.050781 C 454.757812 782.964844 448.570312 783.730469 442.363281 784.339844 C 436.152344 784.953125 429.933594 785.410156 423.703125 785.71875 C 417.472656 786.023438 411.238281 786.175781 405 786.175781 C 398.761719 786.175781 392.527344 786.023438 386.296875 785.71875 C 380.066406 785.410156 373.847656 784.953125 367.636719 784.339844 C 361.429688 783.730469 355.242188 782.964844 349.070312 782.050781 C 342.898438 781.136719 336.753906 780.070312 330.636719 778.851562 C 324.519531 777.636719 318.433594 776.269531 312.382812 774.753906 C 306.332031 773.238281 300.320312 771.574219 294.351562 769.761719 C 288.378906 767.953125 282.460938 765.996094 276.585938 763.894531 C 270.710938 761.792969 264.894531 759.546875 259.128906 757.160156 C 253.367188 754.773438 247.664062 752.246094 242.027344 749.578125 C 236.386719 746.914062 230.816406 744.109375 225.316406 741.167969 C 219.8125 738.226562 214.386719 735.152344 209.035156 731.945312 C 203.683594 728.738281 198.417969 725.402344 193.230469 721.9375 C 188.042969 718.472656 182.945312 714.878906 177.933594 711.164062 C 172.921875 707.449219 168.007812 703.609375 163.183594 699.652344 C 158.363281 695.695312 153.640625 691.621094 149.015625 687.433594 C 144.394531 683.242188 139.878906 678.945312 135.46875 674.53125 C 131.054688 670.121094 126.757812 665.605469 122.566406 660.980469 C 118.378906 656.359375 114.304688 651.636719 110.347656 646.816406 C 106.390625 641.992188 102.550781 637.078125 98.835938 632.066406 C 95.121094 627.054688 91.527344 621.957031 88.0625 616.769531 C 84.597656 611.582031 81.261719 606.316406 78.054688 600.964844 C 74.847656 595.613281 71.773438 590.1875 68.832031 584.683594 C 65.890625 579.183594 63.085938 573.613281 60.421875 567.972656 C 57.753906 562.335938 55.226562 556.632812 52.839844 550.871094 C 50.453125 545.105469 48.207031 539.289062 46.105469 533.414062 C 44.003906 527.539062 42.046875 521.621094 40.238281 515.648438 C 38.425781 509.679688 36.761719 503.667969 35.246094 497.617188 C 33.730469 491.566406 32.363281 485.480469 31.148438 479.363281 C 29.929688 473.246094 28.863281 467.101562 27.949219 460.929688 C 27.035156 454.757812 26.269531 448.570312 25.660156 442.363281 C 25.046875 436.152344 24.589844 429.933594 24.28125 423.703125 C 23.976562 417.472656 23.824219 411.238281 23.824219 405 C 23.824219 398.761719 23.976562 392.527344 24.28125 386.296875 C 24.589844 380.066406 25.046875 373.847656 25.660156 367.636719 C 26.269531 361.429688 27.035156 355.242188 27.949219 349.070312 C 28.863281 342.898438 29.929688 336.753906 31.148438 330.636719 C 32.363281 324.519531 33.730469 318.433594 35.246094 312.382812 C 36.761719 306.332031 38.425781 300.320312 40.238281 294.351562 C 42.046875 288.378906 44.003906 282.460938 46.105469 276.585938 C 48.207031 270.710938 50.453125 264.894531 52.839844 259.128906 C 55.226562 253.367188 57.753906 247.664062 60.421875 242.027344 C 63.085938 236.386719 65.890625 230.816406 68.832031 225.316406 C 71.773438 219.8125 74.847656 214.386719 78.054688 209.035156 C 81.261719 203.683594 84.597656 198.417969 88.0625 193.230469 C 91.527344 188.042969 95.121094 182.945312 98.835938 177.933594 C 102.550781 172.921875 106.390625 168.007812 110.347656 163.183594 C 114.304688 158.363281 118.378906 153.640625 122.566406 149.015625 C 126.757812 144.394531 131.054688 139.878906 135.46875 135.46875 C 139.878906 131.054688 144.394531 126.757812 149.015625 122.566406 C 153.640625 118.378906 158.363281 114.304688 163.183594 110.347656 C 168.007812 106.390625 172.921875 102.550781 177.933594 98.835938 C 182.945312 95.121094 188.042969 91.527344 193.230469 88.0625 C 198.417969 84.597656 203.683594 81.261719 209.035156 78.054688 C 214.386719 74.847656 219.8125 71.773438 225.316406 68.832031 C 230.816406 65.890625 236.386719 63.085938 242.027344 60.421875 C 247.664062 57.753906 253.367188 55.226562 259.128906 52.839844 C 264.894531 50.453125 270.710938 48.207031 276.585938 46.105469 C 282.460938 44.003906 288.378906 42.046875 294.351562 40.238281 C 300.320312 38.425781 306.332031 36.761719 312.382812 35.246094 C 318.433594 33.730469 324.519531 32.363281 330.636719 31.148438 C 336.753906 29.929688 342.898438 28.863281 349.070312 27.949219 C 355.242188 27.035156 361.429688 26.269531 367.636719 25.660156 C 373.847656 25.046875 380.066406 24.589844 386.296875 24.28125 C 392.527344 23.976562 398.761719 23.824219 405 23.824219 C 411.238281 23.824219 417.472656 23.976562 423.703125 24.28125 C 429.933594 24.589844 436.152344 25.046875 442.363281 25.660156 C 448.570312 26.269531 454.757812 27.035156 460.929688 27.949219 C 467.101562 28.863281 473.246094 29.929688 479.363281 31.148438 C 485.480469 32.363281 491.566406 33.730469 497.617188 35.246094 C 503.667969 36.761719 509.679688 38.425781 515.648438 40.238281 C 521.621094 42.046875 527.539062 44.003906 533.414062 46.105469 C 539.289062 48.207031 545.105469 50.453125 550.871094 52.839844 C 556.632812 55.226562 562.335938 57.753906 567.972656 60.421875 C 573.613281 63.085938 579.183594 65.890625 584.683594 68.832031 C 590.1875 71.773438 595.613281 74.847656 600.964844 78.054688 C 606.316406 81.261719 611.582031 84.597656 616.769531 88.0625 C 621.957031 91.527344 627.054688 95.121094 632.066406 98.835938 C 637.078125 102.550781 641.992188 106.390625 646.816406 110.347656 C 651.636719 114.304688 656.359375 118.378906 660.980469 122.566406 C 665.605469 126.757812 670.121094 131.054688 674.53125 135.46875 C 678.945312 139.878906 683.242188 144.394531 687.433594 149.015625 C 691.621094 153.640625 695.695312 158.363281 699.652344 163.183594 C 703.609375 168.007812 707.449219 172.921875 711.164062 177.933594 C 714.878906 182.945312 718.472656 188.042969 721.9375 193.230469 C 725.402344 198.417969 728.738281 203.683594 731.945312 209.035156 C 735.152344 214.386719 738.226562 219.8125 741.167969 225.316406 C 744.109375 230.816406 746.914062 236.386719 749.578125 242.027344 C 752.246094 247.664062 754.773438 253.367188 757.160156 259.128906 C 759.546875 264.894531 761.792969 270.710938 763.894531 276.585938 C 765.996094 282.460938 767.953125 288.378906 769.761719 294.351562 C 771.574219 300.320312 773.238281 306.332031 774.753906 312.382812 C 776.269531 318.433594 777.636719 324.519531 778.851562 330.636719 C 780.070312 336.753906 781.136719 342.898438 782.050781 349.070312 C 782.964844 355.242188 783.730469 361.429688 784.339844 367.636719 C 784.953125 373.847656 785.410156 380.066406 785.71875 386.296875 C 786.023438 392.527344 786.175781 398.761719 786.175781 405 Z M 786.175781 405 " fill-opacity="1" fill-rule="nonzero"/><path fill="#000000" d="M 405 810 C 181.167969 810 0 628.863281 0 405 C 0 181.167969 181.136719 0 405 0 C 628.832031 0 810 181.136719 810 405 C 810 628.832031 628.863281 810 405 810 Z M 405 47.648438 C 207.957031 47.648438 47.648438 207.957031 47.648438 405 C 47.648438 602.042969 207.957031 762.351562 405 762.351562 C 602.042969 762.351562 762.351562 602.042969 762.351562 405 C 762.351562 207.957031 602.042969 47.648438 405 47.648438 Z M 405 47.648438 " fill-opacity="1" fill-rule="nonzero"/><path fill="#00ffd9" d="M 496.625 544.273438 L 564.871094 612.519531 C 457.351562 695.539062 304.246094 682.496094 212.0625 582.152344 L 279.511719 514.699219 C 334.6875 577.78125 427.449219 589.945312 496.625 544.273438 Z M 496.625 544.273438 " fill-opacity="1" fill-rule="nonzero"/><path fill="#ff2e17" d="M 667.058594 357.351562 L 667.058594 405 C 667.058594 489.367188 626.988281 564.554688 564.871094 612.519531 L 496.625 544.273438 C 528.976562 522.925781 553.484375 490.605469 564.824219 452.648438 L 435.636719 452.648438 L 435.636719 357.351562 Z M 667.058594 357.351562 " fill-opacity="1" fill-rule="nonzero"/><path fill="#0056d1" d="M 279.511719 514.699219 L 212.0625 582.152344 C 121.203125 483.289062 119.871094 332.46875 208.25 232.074219 L 275.828125 299.652344 C 224.398438 362.5625 225.820312 453.40625 279.511719 514.699219 Z M 279.511719 514.699219 " fill-opacity="1" fill-rule="nonzero"/><path fill="#ffc933" d="M 554.785156 189.9375 L 500.261719 268.09375 C 428.753906 218.230469 330.945312 232.148438 275.828125 299.652344 L 208.25 232.074219 C 296.871094 131.386719 446.007812 114.074219 554.785156 189.9375 Z M 554.785156 189.9375 " fill-opacity="1" fill-rule="nonzero"/><path fill="#000000" d="M 667.058594 333.53125 L 435.636719 333.53125 C 422.480469 333.53125 411.351562 344.195312 411.351562 357.351562 L 411.351562 452.648438 C 411.351562 465.804688 422.480469 476.46875 435.636719 476.46875 L 528.746094 476.46875 C 503.800781 519.476562 457.402344 547.941406 405 547.941406 C 326.492188 547.941406 262.058594 484.015625 262.058594 405 C 262.058594 326.957031 325.445312 262.058594 405 262.058594 C 434.410156 262.058594 462.636719 270.902344 486.636719 287.636719 C 497.425781 295.164062 512.273438 292.511719 519.800781 281.722656 L 574.324219 203.566406 C 581.847656 192.78125 579.207031 177.921875 568.410156 170.394531 C 520.3125 136.847656 463.804688 119.117188 405 119.117188 C 248.191406 119.117188 119.117188 246.578125 119.117188 405 C 119.117188 564.570312 249.417969 690.882812 405.136719 690.882812 C 563.363281 690.882812 690.882812 562.527344 690.882812 405 L 690.882812 357.351562 C 690.882812 344.195312 680.214844 333.53125 667.058594 333.53125 Z M 520.9375 196.820312 L 493.503906 236.148438 C 424.417969 199.832031 336.238281 208.644531 275.304688 265.441406 L 241.652344 231.785156 C 317.789062 160.007812 431.046875 146.609375 520.9375 196.820312 Z M 210.332031 267.847656 L 244.660156 302.175781 C 203.277344 366.667969 204.402344 449.4375 247.835938 512.683594 L 213.714844 546.808594 C 152.390625 464.347656 151.015625 351.84375 210.332031 267.847656 Z M 245.839844 582.0625 L 279.546875 548.359375 C 338.476562 599.972656 423.167969 610.398438 492.785156 574.125 L 527.773438 609.113281 C 438.359375 663.289062 323.734375 652.011719 245.839844 582.0625 Z M 643.234375 405 C 643.234375 472.324219 615.425781 535.101562 566.269531 580.222656 L 532.519531 546.476562 C 558.402344 523.125 577.621094 493.039062 587.648438 459.464844 C 592.210938 444.203125 580.765625 428.824219 564.824219 428.824219 L 459 428.824219 L 459 381.175781 L 643.234375 381.175781 Z M 643.234375 405 " fill-opacity="1" fill-rule="nonzero"/></svg>