<svg xmlns="http://www.w3.org/2000/svg" xmlns:xlink="http://www.w3.org/1999/xlink" width="1080" zoomAndPan="magnify" viewBox="0 0 810 809.999993" height="1080" preserveAspectRatio="xMidYMid meet" version="1.0"><path fill="#6bbf5f" d="M 405.050781 0.0351562 C 181.367188 0.0351562 0.0351562 181.367188 0.0351562 405.054688 C 0.0351562 471.480469 16.03125 534.167969 44.375 589.484375 C 50.566406 601.570312 52.171875 615.492188 48.65625 628.609375 L 11.679688 766.617188 C 6.503906 785.929688 24.175781 803.601562 43.488281 798.425781 L 181.496094 761.449219 C 194.617188 757.933594 208.535156 759.539062 220.621094 765.734375 C 275.9375 794.078125 338.628906 810.070312 405.054688 810.070312 C 628.738281 810.070312 810.070312 628.738281 810.070312 405.054688 C 810.070312 181.375 628.734375 0.0351562 405.054688 0.0351562 Z M 405.050781 0.0351562 " fill-opacity="1" fill-rule="nonzero"/><path fill="#ffffff" d="M 724.488281 405.054688 C 724.488281 410.28125 724.359375 415.503906 724.105469 420.726562 C 723.847656 425.949219 723.464844 431.160156 722.953125 436.363281 C 722.4375 441.566406 721.800781 446.753906 721.03125 451.925781 C 720.265625 457.09375 719.371094 462.246094 718.351562 467.371094 C 717.332031 472.5 716.1875 477.597656 714.917969 482.667969 C 713.644531 487.742188 712.253906 492.777344 710.734375 497.78125 C 709.21875 502.78125 707.578125 507.746094 705.816406 512.667969 C 704.054688 517.589844 702.175781 522.464844 700.175781 527.296875 C 698.171875 532.125 696.054688 536.902344 693.820312 541.628906 C 691.585938 546.355469 689.234375 551.023438 686.769531 555.632812 C 684.304688 560.246094 681.730469 564.792969 679.042969 569.277344 C 676.355469 573.761719 673.558594 578.175781 670.65625 582.523438 C 667.75 586.867188 664.742188 591.140625 661.625 595.339844 C 658.511719 599.539062 655.296875 603.660156 651.980469 607.703125 C 648.664062 611.742188 645.25 615.699219 641.738281 619.574219 C 638.230469 623.445312 634.625 627.230469 630.929688 630.929688 C 627.230469 634.625 623.445312 638.230469 619.574219 641.738281 C 615.699219 645.25 611.742188 648.664062 607.703125 651.980469 C 603.660156 655.296875 599.539062 658.511719 595.339844 661.625 C 591.140625 664.742188 586.867188 667.75 582.523438 670.65625 C 578.175781 673.558594 573.761719 676.355469 569.277344 679.042969 C 564.792969 681.730469 560.246094 684.304688 555.632812 686.769531 C 551.023438 689.234375 546.355469 691.585938 541.628906 693.820312 C 536.902344 696.054688 532.125 698.171875 527.296875 700.171875 C 522.464844 702.175781 517.589844 704.054688 512.667969 705.816406 C 507.746094 707.578125 502.78125 709.21875 497.78125 710.734375 C 492.777344 712.253906 487.742188 713.644531 482.667969 714.917969 C 477.597656 716.1875 472.5 717.332031 467.371094 718.351562 C 462.246094 719.371094 457.09375 720.265625 451.925781 721.03125 C 446.753906 721.800781 441.566406 722.4375 436.363281 722.953125 C 431.160156 723.464844 425.949219 723.847656 420.726562 724.105469 C 415.503906 724.359375 410.28125 724.488281 405.054688 724.488281 C 399.824219 724.488281 394.601562 724.359375 389.378906 724.105469 C 384.15625 723.847656 378.945312 723.464844 373.742188 722.953125 C 368.539062 722.4375 363.351562 721.800781 358.183594 721.03125 C 353.011719 720.265625 347.859375 719.371094 342.734375 718.351562 C 337.605469 717.332031 332.507812 716.1875 327.4375 714.917969 C 322.363281 713.644531 317.328125 712.253906 312.324219 710.734375 C 307.324219 709.21875 302.359375 707.578125 297.4375 705.816406 C 292.515625 704.054688 287.640625 702.175781 282.808594 700.175781 C 277.980469 698.171875 273.203125 696.054688 268.476562 693.820312 C 263.75 691.585938 259.082031 689.234375 254.472656 686.769531 C 249.859375 684.304688 245.3125 681.730469 240.828125 679.042969 C 236.34375 676.355469 231.929688 673.558594 227.582031 670.65625 C 223.238281 667.75 218.964844 664.742188 214.765625 661.625 C 210.566406 658.511719 206.445312 655.296875 202.402344 651.980469 C 198.363281 648.664062 194.40625 645.25 190.53125 641.738281 C 186.660156 638.230469 182.875 634.625 179.175781 630.929688 C 175.480469 627.230469 171.875 623.445312 168.367188 619.574219 C 164.855469 615.699219 161.441406 611.742188 158.125 607.703125 C 154.808594 603.660156 151.59375 599.539062 148.480469 595.339844 C 145.363281 591.140625 142.355469 586.867188 139.449219 582.523438 C 136.546875 578.175781 133.75 573.761719 131.0625 569.277344 C 128.375 564.792969 125.800781 560.246094 123.335938 555.632812 C 120.871094 551.023438 118.519531 546.355469 116.285156 541.628906 C 114.050781 536.902344 111.933594 532.125 109.933594 527.296875 C 107.929688 522.464844 106.050781 517.589844 104.289062 512.667969 C 102.527344 507.746094 100.886719 502.78125 99.371094 497.78125 C 97.851562 492.777344 96.460938 487.742188 95.1875 482.667969 C 93.917969 477.597656 92.773438 472.5 91.753906 467.371094 C 90.734375 462.246094 89.839844 457.09375 89.074219 451.925781 C 88.304688 446.753906 87.667969 441.566406 87.152344 436.363281 C 86.640625 431.160156 86.257812 425.949219 86 420.726562 C 85.746094 415.503906 85.617188 410.28125 85.617188 405.054688 C 85.617188 399.824219 85.746094 394.601562 86 389.378906 C 86.257812 384.15625 86.640625 378.945312 87.152344 373.742188 C 87.667969 368.539062 88.304688 363.351562 89.074219 358.183594 C 89.839844 353.011719 90.734375 347.859375 91.753906 342.734375 C 92.773438 337.605469 93.917969 332.507812 95.1875 327.4375 C 96.460938 322.363281 97.851562 317.328125 99.371094 312.324219 C 100.886719 307.324219 102.527344 302.359375 104.289062 297.4375 C 106.050781 292.515625 107.929688 287.640625 109.933594 282.808594 C 111.933594 277.980469 114.050781 273.203125 116.285156 268.476562 C 118.519531 263.75 120.871094 259.082031 123.335938 254.472656 C 125.800781 249.859375 128.375 245.3125 131.0625 240.828125 C 133.75 236.34375 136.546875 231.929688 139.449219 227.582031 C 142.355469 223.238281 145.363281 218.964844 148.480469 214.765625 C 151.59375 210.566406 154.808594 206.445312 158.125 202.402344 C 161.441406 198.363281 164.855469 194.40625 168.367188 190.53125 C 171.875 186.660156 175.480469 182.875 179.175781 179.175781 C 182.875 175.480469 186.660156 171.875 190.53125 168.367188 C 194.40625 164.855469 198.363281 161.441406 202.402344 158.125 C 206.445312 154.808594 210.566406 151.59375 214.765625 148.480469 C 218.964844 145.363281 223.238281 142.355469 227.582031 139.449219 C 231.929688 136.546875 236.34375 133.75 240.828125 131.0625 C 245.3125 128.375 249.859375 125.800781 254.472656 123.335938 C 259.082031 120.871094 263.75 118.519531 268.476562 116.285156 C 273.203125 114.050781 277.980469 111.933594 282.808594 109.933594 C 287.640625 107.929688 292.515625 106.050781 297.4375 104.289062 C 302.359375 102.527344 307.324219 100.886719 312.324219 99.371094 C 317.328125 97.851562 322.363281 96.460938 327.4375 95.1875 C 332.507812 93.917969 337.605469 92.773438 342.734375 91.753906 C 347.859375 90.734375 353.011719 89.839844 358.183594 89.074219 C 363.351562 88.304688 368.539062 87.667969 373.742188 87.152344 C 378.945312 86.640625 384.15625 86.257812 389.378906 86 C 394.601562 85.746094 399.824219 85.617188 405.054688 85.617188 C 410.28125 85.617188 415.503906 85.746094 420.726562 86 C 425.949219 86.257812 431.160156 86.640625 436.363281 87.152344 C 441.566406 87.667969 446.753906 88.304688 451.921875 89.074219 C 457.09375 89.839844 462.246094 90.734375 467.371094 91.753906 C 472.5 92.773438 477.597656 93.917969 482.667969 95.1875 C 487.742188 96.460938 492.777344 97.851562 497.78125 99.371094 C 502.78125 100.886719 507.746094 102.527344 512.667969 104.289062 C 517.589844 106.050781 522.464844 107.929688 527.296875 109.933594 C 532.125 111.933594 536.902344 114.050781 541.628906 116.285156 C 546.355469 118.519531 551.023438 120.871094 555.632812 123.335938 C 560.246094 125.800781 564.792969 128.375 569.277344 131.0625 C 573.761719 133.75 578.175781 136.546875 582.523438 139.449219 C 586.867188 142.355469 591.140625 145.363281 595.339844 148.480469 C 599.539062 151.59375 603.660156 154.808594 607.703125 158.125 C 611.742188 161.441406 615.699219 164.855469 619.574219 168.367188 C 623.445312 171.875 627.230469 175.480469 630.929688 179.175781 C 634.625 182.875 638.230469 186.660156 641.738281 190.53125 C 645.25 194.40625 648.664062 198.363281 651.980469 202.402344 C 655.296875 206.445312 658.511719 210.566406 661.625 214.765625 C 664.742188 218.964844 667.75 223.238281 670.65625 227.582031 C 673.558594 231.929688 676.355469 236.34375 679.042969 240.828125 C 681.730469 245.3125 684.304688 249.859375 686.769531 254.472656 C 689.234375 259.082031 691.585938 263.75 693.820312 268.476562 C 696.054688 273.203125 698.171875 277.980469 700.171875 282.808594 C 702.175781 287.640625 704.054688 292.515625 705.816406 297.4375 C 707.578125 302.359375 709.21875 307.324219 710.734375 312.324219 C 712.253906 317.328125 713.644531 322.363281 714.917969 327.4375 C 716.1875 332.507812 717.332031 337.605469 718.351562 342.734375 C 719.371094 347.859375 720.265625 353.011719 721.03125 358.183594 C 721.800781 363.351562 722.4375 368.539062 722.953125 373.742188 C 723.464844 378.945312 723.847656 384.15625 724.105469 389.378906 C 724.359375 394.601562 724.488281 399.824219 724.488281 405.054688 Z M 724.488281 405.054688 " fill-opacity="1" fill-rule="nonzero"/><path fill="#6bbf5f" d="M 558.664062 491.457031 C 558.558594 481.105469 552.25 472.003906 542.59375 468.269531 L 482.746094 445.128906 C 473.226562 441.445312 462.417969 443.734375 455.203125 450.949219 L 439.976562 466.171875 C 439.222656 466.921875 438.074219 467.121094 437.175781 466.648438 C 410.804688 452.726562 357.378906 399.300781 343.457031 372.929688 C 342.984375 372.03125 343.179688 370.878906 343.933594 370.125 L 359.15625 354.902344 C 366.371094 347.6875 368.65625 336.875 364.976562 327.359375 L 341.835938 267.511719 C 338.101562 257.855469 329 251.546875 318.648438 251.4375 L 311.65625 251.367188 C 297.808594 251.230469 284.398438 257.59375 275.855469 268.402344 C 262.664062 285.101562 247.835938 310.242188 252.117188 335.175781 C 254.28125 347.769531 264.144531 367.691406 282.269531 396.074219 C 315.863281 448.675781 361.425781 494.238281 414.03125 527.835938 C 442.414062 545.960938 462.332031 555.824219 474.925781 557.988281 C 477.914062 558.5 480.902344 558.738281 483.886719 558.738281 C 505.765625 558.738281 527.003906 545.859375 541.699219 534.246094 C 552.511719 525.707031 558.878906 512.320312 558.734375 498.445312 Z M 558.664062 491.457031 " fill-opacity="1" fill-rule="nonzero"/></svg>