<svg xmlns="http://www.w3.org/2000/svg" xmlns:xlink="http://www.w3.org/1999/xlink" width="1080" zoomAndPan="magnify" viewBox="0 0 810 809.999993" height="1080" preserveAspectRatio="xMidYMid meet" version="1.0"><path fill="#039be5" d="M 690.554688 119.757812 C 695.222656 124.429688 699.777344 129.210938 704.214844 134.105469 C 708.648438 139 712.960938 144 717.152344 149.105469 C 721.34375 154.210938 725.40625 159.414062 729.339844 164.71875 C 733.273438 170.027344 737.078125 175.425781 740.746094 180.917969 C 744.417969 186.40625 747.949219 191.988281 751.34375 197.652344 C 754.742188 203.316406 757.996094 209.0625 761.109375 214.886719 C 764.222656 220.714844 767.191406 226.609375 770.015625 232.582031 C 772.839844 238.554688 775.515625 244.589844 778.042969 250.691406 C 780.570312 256.792969 782.949219 262.953125 785.171875 269.171875 C 787.398438 275.394531 789.46875 281.664062 791.386719 287.984375 C 793.304688 294.304688 795.066406 300.667969 796.671875 307.074219 C 798.277344 313.480469 799.722656 319.925781 801.011719 326.402344 C 802.300781 332.882812 803.429688 339.386719 804.398438 345.921875 C 805.367188 352.453125 806.175781 359.007812 806.824219 365.582031 C 807.472656 372.15625 807.957031 378.738281 808.28125 385.335938 C 808.605469 391.933594 808.769531 398.535156 808.769531 405.140625 C 808.769531 411.746094 808.605469 418.347656 808.28125 424.945312 C 807.957031 431.539062 807.472656 438.125 806.824219 444.699219 C 806.179688 451.273438 805.371094 457.824219 804.402344 464.359375 C 803.433594 470.894531 802.304688 477.398438 801.015625 483.878906 C 799.726562 490.355469 798.28125 496.796875 796.675781 503.207031 C 795.070312 509.613281 793.308594 515.976562 791.390625 522.296875 C 789.476562 528.617188 787.402344 534.886719 785.179688 541.105469 C 782.953125 547.328125 780.578125 553.488281 778.050781 559.589844 C 775.523438 565.691406 772.847656 571.730469 770.023438 577.699219 C 767.199219 583.671875 764.230469 589.570312 761.117188 595.394531 C 758.003906 601.21875 754.746094 606.964844 751.351562 612.628906 C 747.957031 618.296875 744.425781 623.875 740.753906 629.367188 C 737.085938 634.859375 733.28125 640.257812 729.347656 645.5625 C 725.414062 650.867188 721.351562 656.074219 717.160156 661.179688 C 712.972656 666.285156 708.660156 671.285156 704.222656 676.179688 C 699.785156 681.074219 695.234375 685.855469 690.5625 690.527344 C 685.894531 695.195312 681.109375 699.75 676.21875 704.1875 C 671.324219 708.621094 666.324219 712.933594 661.21875 717.125 C 656.113281 721.316406 650.90625 725.378906 645.601562 729.3125 C 640.296875 733.246094 634.898438 737.050781 629.40625 740.71875 C 623.914062 744.390625 618.335938 747.921875 612.667969 751.316406 C 607.003906 754.714844 601.257812 757.96875 595.433594 761.082031 C 589.609375 764.195312 583.710938 767.164062 577.738281 769.988281 C 571.769531 772.8125 565.730469 775.488281 559.628906 778.015625 C 553.527344 780.542969 547.367188 782.921875 541.148438 785.148438 C 534.929688 787.371094 528.660156 789.445312 522.339844 791.359375 C 516.015625 793.277344 509.652344 795.039062 503.246094 796.644531 C 496.839844 798.25 490.398438 799.695312 483.917969 800.984375 C 477.441406 802.273438 470.933594 803.402344 464.402344 804.371094 C 457.867188 805.339844 451.3125 806.148438 444.742188 806.796875 C 438.167969 807.445312 431.582031 807.929688 424.984375 808.253906 C 418.386719 808.578125 411.785156 808.742188 405.179688 808.742188 C 398.574219 808.742188 391.976562 808.578125 385.378906 808.257812 C 378.78125 807.933594 372.195312 807.445312 365.621094 806.800781 C 359.046875 806.152344 352.496094 805.34375 345.960938 804.375 C 339.429688 803.40625 332.921875 802.277344 326.445312 800.988281 C 319.964844 799.699219 313.523438 798.253906 307.117188 796.648438 C 300.707031 795.042969 294.34375 793.28125 288.023438 791.363281 C 281.703125 789.449219 275.433594 787.375 269.214844 785.152344 C 262.996094 782.925781 256.835938 780.550781 250.730469 778.023438 C 244.628906 775.496094 238.59375 772.820312 232.621094 769.996094 C 226.652344 767.171875 220.753906 764.203125 214.925781 761.089844 C 209.101562 757.976562 203.355469 754.722656 197.691406 751.324219 C 192.027344 747.929688 186.445312 744.398438 180.953125 740.726562 C 175.460938 737.058594 170.0625 733.257812 164.757812 729.320312 C 159.453125 725.386719 154.246094 721.324219 149.140625 717.132812 C 144.035156 712.945312 139.035156 708.632812 134.140625 704.195312 C 129.246094 699.761719 124.464844 695.207031 119.792969 690.535156 C 115.125 685.867188 110.570312 681.082031 106.136719 676.191406 C 101.699219 671.296875 97.386719 666.296875 93.195312 661.191406 C 89.003906 656.085938 84.941406 650.878906 81.007812 645.574219 C 77.074219 640.269531 73.269531 634.871094 69.601562 629.378906 C 65.933594 623.886719 62.398438 618.308594 59.003906 612.640625 C 55.605469 606.976562 52.351562 601.230469 49.238281 595.40625 C 46.125 589.582031 43.15625 583.683594 40.332031 577.710938 C 37.507812 571.742188 34.832031 565.703125 32.304688 559.601562 C 29.777344 553.5 27.398438 547.339844 25.175781 541.121094 C 22.949219 534.902344 20.878906 528.632812 18.960938 522.3125 C 17.042969 515.992188 15.28125 509.625 13.675781 503.21875 C 12.070312 496.8125 10.625 490.371094 9.335938 483.890625 C 8.046875 477.414062 6.917969 470.90625 5.949219 464.375 C 4.980469 457.839844 4.171875 451.285156 3.523438 444.714844 C 2.875 438.140625 2.390625 431.554688 2.066406 424.957031 C 1.742188 418.359375 1.578125 411.757812 1.578125 405.152344 C 1.578125 398.550781 1.742188 391.949219 2.066406 385.351562 C 2.390625 378.753906 2.875 372.167969 3.523438 365.59375 C 4.167969 359.023438 4.976562 352.46875 5.945312 345.933594 C 6.914062 339.402344 8.042969 332.894531 9.332031 326.417969 C 10.621094 319.9375 12.066406 313.496094 13.671875 307.089844 C 15.277344 300.679688 17.039062 294.316406 18.957031 287.996094 C 20.875 281.675781 22.945312 275.40625 25.167969 269.1875 C 27.394531 262.96875 29.769531 256.808594 32.296875 250.703125 C 34.828125 244.601562 37.503906 238.566406 40.324219 232.59375 C 43.148438 226.625 46.117188 220.726562 49.230469 214.898438 C 52.347656 209.074219 55.601562 203.328125 58.996094 197.664062 C 62.390625 192 65.925781 186.421875 69.59375 180.929688 C 73.261719 175.4375 77.066406 170.039062 81 164.730469 C 84.933594 159.425781 88.996094 154.222656 93.1875 149.113281 C 97.378906 144.007812 101.691406 139.007812 106.125 134.113281 C 110.5625 129.222656 115.113281 124.4375 119.785156 119.769531 C 124.457031 115.097656 129.238281 110.542969 134.132812 106.109375 C 139.027344 101.671875 144.023438 97.359375 149.132812 93.167969 C 154.238281 88.976562 159.441406 84.914062 164.746094 80.980469 C 170.050781 77.046875 175.453125 73.246094 180.941406 69.574219 C 186.433594 65.90625 192.011719 62.371094 197.679688 58.976562 C 203.34375 55.582031 209.089844 52.324219 214.914062 49.210938 C 220.738281 46.097656 226.636719 43.128906 232.609375 40.304688 C 238.578125 37.480469 244.617188 34.804688 250.71875 32.277344 C 256.820312 29.75 262.980469 27.371094 269.199219 25.148438 C 275.417969 22.921875 281.6875 20.851562 288.011719 18.933594 C 294.332031 17.015625 300.695312 15.253906 307.101562 13.648438 C 313.507812 12.042969 319.953125 10.597656 326.429688 9.308594 C 332.90625 8.019531 339.414062 6.890625 345.949219 5.921875 C 352.480469 4.953125 359.035156 4.144531 365.609375 3.496094 C 372.179688 2.847656 378.765625 2.363281 385.363281 2.039062 C 391.960938 1.714844 398.5625 1.554688 405.167969 1.550781 C 411.773438 1.550781 418.375 1.714844 424.96875 2.039062 C 431.566406 2.363281 438.152344 2.847656 444.726562 3.496094 C 451.300781 4.144531 457.851562 4.949219 464.386719 5.917969 C 470.921875 6.890625 477.425781 8.019531 483.90625 9.304688 C 490.382812 10.59375 496.824219 12.042969 503.234375 13.644531 C 509.640625 15.25 516.003906 17.011719 522.324219 18.929688 C 528.644531 20.847656 534.914062 22.917969 541.132812 25.144531 C 547.351562 27.367188 553.515625 29.746094 559.617188 32.273438 C 565.71875 34.800781 571.753906 37.476562 577.726562 40.300781 C 583.699219 43.121094 589.597656 46.089844 595.421875 49.207031 C 601.246094 52.320312 606.992188 55.574219 612.65625 58.96875 C 618.324219 62.363281 623.902344 65.898438 629.394531 69.566406 C 634.886719 73.234375 640.285156 77.039062 645.589844 80.972656 C 650.894531 84.90625 656.101562 88.96875 661.207031 93.160156 C 666.3125 97.351562 671.3125 101.664062 676.207031 106.097656 C 681.101562 110.535156 685.882812 115.085938 690.554688 119.757812 Z M 690.554688 119.757812 " fill-opacity="1" fill-rule="nonzero"/><path fill="#fffffe" d="M 351.347656 445.453125 C 331 425.105469 319.75 397.679688 319.75 368.921875 C 319.75 340.167969 331 312.738281 351.347656 292.390625 L 469.332031 174.40625 C 489.679688 154.058594 517.109375 142.808594 545.867188 142.808594 C 574.621094 142.808594 602.050781 154.058594 622.398438 174.40625 C 642.746094 194.753906 653.996094 222.183594 653.996094 250.9375 C 653.996094 279.695312 642.746094 307.121094 622.398438 327.46875 L 531 418.867188 L 497.769531 385.636719 L 589.167969 294.242188 C 600.6875 282.722656 606.992188 267.214844 606.992188 250.9375 C 606.992188 234.675781 600.671875 219.15625 589.167969 207.636719 C 577.648438 196.117188 562.144531 189.792969 545.867188 189.792969 C 529.605469 189.792969 514.082031 196.117188 502.5625 207.621094 L 384.578125 325.601562 C 373.058594 337.121094 366.753906 352.628906 366.753906 368.90625 C 366.753906 385.167969 373.078125 400.6875 384.59375 412.207031 L 391.792969 419.40625 L 358.546875 452.667969 Z M 351.347656 445.453125 " fill-opacity="1" fill-rule="evenodd"/><path fill="#fffffe" d="M 459.007812 364.835938 C 479.355469 385.183594 490.605469 412.613281 490.605469 441.367188 C 490.605469 470.125 479.355469 497.550781 459.007812 517.898438 L 341.023438 635.882812 C 320.675781 656.230469 293.25 667.480469 264.492188 667.480469 C 235.738281 667.480469 208.308594 656.230469 187.960938 635.882812 C 167.613281 615.535156 156.363281 588.109375 156.363281 559.351562 C 156.363281 530.597656 167.613281 503.167969 187.960938 482.820312 L 279.359375 391.421875 L 312.585938 424.652344 L 221.191406 516.050781 C 209.671875 527.570312 203.363281 543.074219 203.363281 559.351562 C 203.363281 575.613281 209.6875 591.136719 221.191406 602.65625 C 232.710938 614.171875 248.214844 620.496094 264.492188 620.496094 C 280.753906 620.496094 296.277344 614.171875 307.796875 602.671875 L 425.777344 484.6875 C 437.296875 473.167969 443.605469 457.664062 443.605469 441.382812 C 443.605469 425.125 437.28125 409.601562 425.761719 398.082031 L 418.566406 390.886719 L 451.792969 357.65625 Z M 459.007812 364.835938 " fill-opacity="1" fill-rule="evenodd"/></svg>